G04 #@! TF.FileFunction,Copper,L1,Top,Signal*
%FSLAX46Y46*%
G04 Gerber Fmt 4.6, Leading zero omitted, Abs format (unit mm)*
G04 Created by KiCad (PCBNEW 4.0.6-e0-6349~52~ubuntu17.04.1) date Sat May 20 12:03:27 2017*
%MOMM*%
%LPD*%
G01*
G04 APERTURE LIST*
%ADD10C,0.100000*%
%ADD11C,0.150000*%
%ADD12R,2.000000X3.000000*%
%ADD13O,2.000000X3.000000*%
%ADD14R,3.000000X2.000000*%
%ADD15O,3.000000X2.000000*%
%ADD16R,2.000000X2.000000*%
%ADD17O,2.000000X2.000000*%
%ADD18C,3.000000*%
%ADD19C,1.500000*%
%ADD20R,2.000000X1.524000*%
%ADD21O,2.000000X1.524000*%
%ADD22C,2.500000*%
%ADD23C,0.508000*%
%ADD24C,0.254000*%
G04 APERTURE END LIST*
D10*
D11*
X43180000Y0D02*
X-43180000Y0D01*
X43180000Y-60960000D02*
X43180000Y0D01*
X20320000Y-60960000D02*
X43180000Y-60960000D01*
X20320000Y-51435000D02*
X20320000Y-60960000D01*
X-21590000Y-51435000D02*
X20320000Y-51435000D01*
X-21590000Y-60960000D02*
X-21590000Y-51435000D01*
X-43180000Y-60960000D02*
X-21590000Y-60960000D01*
X-43180000Y0D02*
X-43180000Y-60960000D01*
D12*
X-15315000Y-43070000D03*
D13*
X-12775000Y-43070000D03*
D14*
X-23315000Y-45070000D03*
D15*
X-23315000Y-42530000D03*
X-23315000Y-39990000D03*
X-23315000Y-37450000D03*
X-23315000Y-34910000D03*
X-23315000Y-32370000D03*
X-23315000Y-29830000D03*
X-23315000Y-27290000D03*
X-23315000Y-24750000D03*
X-23315000Y-22210000D03*
X-23315000Y-19670000D03*
X-23315000Y-17130000D03*
X-23315000Y-14590000D03*
X-23315000Y-12050000D03*
X-23315000Y-9510000D03*
X-23315000Y-6970000D03*
X-23315000Y-4430000D03*
X-23315000Y-1890000D03*
D12*
X22685000Y-24070000D03*
D13*
X25225000Y-24070000D03*
X27765000Y-24070000D03*
D16*
X23685000Y-5070000D03*
D17*
X26225000Y-5070000D03*
X23685000Y-7610000D03*
X26225000Y-7610000D03*
X23685000Y-10150000D03*
X26225000Y-10150000D03*
X23685000Y-12690000D03*
X26225000Y-12690000D03*
X23685000Y-15230000D03*
X26225000Y-15230000D03*
D14*
X16685000Y-2070000D03*
D15*
X16685000Y-4610000D03*
X16685000Y-7150000D03*
X16685000Y-9690000D03*
X16685000Y-12230000D03*
X16685000Y-14770000D03*
X16685000Y-17310000D03*
X16685000Y-19850000D03*
X16685000Y-22390000D03*
X16685000Y-24930000D03*
X16685000Y-27470000D03*
X16685000Y-30010000D03*
X16685000Y-32550000D03*
X16685000Y-35090000D03*
X16685000Y-37630000D03*
X16685000Y-40170000D03*
X16685000Y-42710000D03*
X16685000Y-45250000D03*
D12*
X21844000Y-35052000D03*
D13*
X24384000Y-35052000D03*
D12*
X21844000Y-29972000D03*
D13*
X24384000Y-29972000D03*
D12*
X21844000Y-44958000D03*
D13*
X24384000Y-44958000D03*
D12*
X21844000Y-40132000D03*
D13*
X24384000Y-40132000D03*
D18*
X-815000Y-40070000D03*
X3685000Y-40070000D03*
X-815000Y-46570000D03*
X3685000Y-46570000D03*
D19*
X-14315000Y-22070000D03*
X-12315000Y-22070000D03*
X-14315000Y-20070000D03*
X-12315000Y-20070000D03*
X-14315000Y-6070000D03*
X-12315000Y-6070000D03*
X-14315000Y-8070000D03*
X-12315000Y-8070000D03*
X-14315000Y-10070000D03*
X-12315000Y-10070000D03*
X-14315000Y-12070000D03*
X-12315000Y-12070000D03*
X-14315000Y-14070000D03*
X-12315000Y-14070000D03*
X-14315000Y-16070000D03*
X-12315000Y-16070000D03*
X-14315000Y-18070000D03*
X-12315000Y-18070000D03*
X7685000Y-6070000D03*
X5685000Y-6070000D03*
X5685000Y-8070000D03*
X7685000Y-8070000D03*
X5685000Y-10070000D03*
X7685000Y-10070000D03*
X5685000Y-12070000D03*
X7685000Y-12070000D03*
X5685000Y-14070000D03*
X7685000Y-14070000D03*
X5685000Y-16070000D03*
X7685000Y-16070000D03*
X5685000Y-18070000D03*
X7685000Y-18070000D03*
X5685000Y-20070000D03*
X7685000Y-20070000D03*
X5685000Y-22070000D03*
X7685000Y-22070000D03*
D20*
X34925000Y-6350000D03*
D21*
X37465000Y-6350000D03*
X34925000Y-19050000D03*
X37465000Y-8890000D03*
X34925000Y-21590000D03*
X37465000Y-11430000D03*
X34925000Y-24130000D03*
X37465000Y-13970000D03*
X34925000Y-26670000D03*
X37465000Y-16510000D03*
X34925000Y-29210000D03*
X37465000Y-19050000D03*
X34925000Y-31750000D03*
X37465000Y-21590000D03*
X34925000Y-34290000D03*
X37465000Y-24130000D03*
X34925000Y-36830000D03*
X37465000Y-26670000D03*
X34925000Y-39370000D03*
X37465000Y-29210000D03*
X34925000Y-41910000D03*
X37465000Y-31750000D03*
X34925000Y-44450000D03*
X37465000Y-34290000D03*
X37465000Y-36830000D03*
X34925000Y-46990000D03*
X37465000Y-39370000D03*
X37465000Y-44450000D03*
X37465000Y-46990000D03*
X37465000Y-49530000D03*
X37465000Y-52070000D03*
X34925000Y-49530000D03*
X34925000Y-52070000D03*
X34925000Y-8890000D03*
X34925000Y-11430000D03*
X34925000Y-13970000D03*
X34925000Y-16510000D03*
X34925000Y-54610000D03*
X37465000Y-54610000D03*
X37465000Y-41910000D03*
D20*
X-36195000Y-6350000D03*
D21*
X-33655000Y-6350000D03*
X-36195000Y-8890000D03*
X-33655000Y-8890000D03*
X-36195000Y-11430000D03*
X-33655000Y-11430000D03*
X-36195000Y-13970000D03*
X-33655000Y-13970000D03*
X-36195000Y-16510000D03*
X-33655000Y-16510000D03*
X-36195000Y-19050000D03*
X-33655000Y-19050000D03*
X-36195000Y-21590000D03*
X-33655000Y-21590000D03*
X-36195000Y-24130000D03*
X-33655000Y-24130000D03*
X-36195000Y-26670000D03*
X-33655000Y-26670000D03*
X-36195000Y-29210000D03*
X-33655000Y-29210000D03*
X-36195000Y-31750000D03*
X-33655000Y-31750000D03*
X-36195000Y-34290000D03*
X-33655000Y-34290000D03*
X-36195000Y-36830000D03*
X-33655000Y-36830000D03*
X-36195000Y-39370000D03*
X-33655000Y-39370000D03*
X-36195000Y-41910000D03*
X-33655000Y-41910000D03*
X-36195000Y-44450000D03*
X-33655000Y-44450000D03*
X-36195000Y-46990000D03*
X-33655000Y-46990000D03*
X-36195000Y-49530000D03*
X-33655000Y-49530000D03*
X-36195000Y-52070000D03*
X-33655000Y-52070000D03*
X-36195000Y-54610000D03*
X-33655000Y-54610000D03*
D22*
X40513000Y-3302000D03*
X-27813000Y-11938000D03*
X-27051000Y-51054000D03*
X-26543000Y-38354000D03*
X-26797000Y-35052000D03*
X-27051000Y-32004000D03*
X-27051000Y-28956000D03*
X22479000Y-20574000D03*
X20193000Y-13716000D03*
X28448000Y-35052000D03*
X29210000Y-29972000D03*
X28956000Y-45212000D03*
X28702000Y-40132000D03*
D23*
X-36195000Y-54610000D02*
X-36195000Y-55372000D01*
X-36195000Y-55372000D02*
X-34925000Y-56642000D01*
X40005000Y-57658000D02*
X40005000Y-51308000D01*
X39243000Y-58420000D02*
X40005000Y-57658000D01*
X27305000Y-58420000D02*
X39243000Y-58420000D01*
X24765000Y-55880000D02*
X27305000Y-58420000D01*
X24765000Y-52832000D02*
X24765000Y-55880000D01*
X21971000Y-50038000D02*
X24765000Y-52832000D01*
X-21717000Y-50038000D02*
X21971000Y-50038000D01*
X-28321000Y-56642000D02*
X-21717000Y-50038000D01*
X-34925000Y-56642000D02*
X-28321000Y-56642000D01*
X40005000Y-3810000D02*
X40005000Y-9906000D01*
X40513000Y-3302000D02*
X40005000Y-3810000D01*
X40005000Y-28194000D02*
X40005000Y-51308000D01*
X39243000Y-52070000D02*
X37465000Y-52070000D01*
X40005000Y-51308000D02*
X39243000Y-52070000D01*
X37465000Y-8890000D02*
X38989000Y-8890000D01*
X38989000Y-8890000D02*
X40005000Y-9906000D01*
X38989000Y-29210000D02*
X37465000Y-29210000D01*
X40005000Y-28194000D02*
X38989000Y-29210000D01*
X40005000Y-9906000D02*
X40005000Y-28194000D01*
X37465000Y-31750000D02*
X37465000Y-29210000D01*
X37465000Y-34290000D02*
X37465000Y-31750000D01*
X37465000Y-36830000D02*
X37465000Y-34290000D01*
X37465000Y-39370000D02*
X37465000Y-36830000D01*
X37465000Y-41910000D02*
X37465000Y-39370000D01*
X37465000Y-44450000D02*
X37465000Y-41910000D01*
X37465000Y-54610000D02*
X37465000Y-52070000D01*
X-36195000Y-8890000D02*
X-37719000Y-8890000D01*
X-37719000Y-8890000D02*
X-39243000Y-7366000D01*
X-27813000Y-11938000D02*
X-29591000Y-10160000D01*
X-29591000Y-10160000D02*
X-29591000Y-5080000D01*
X-29591000Y-5080000D02*
X-31369000Y-3302000D01*
X-31369000Y-3302000D02*
X-37719000Y-3302000D01*
X-37719000Y-3302000D02*
X-39243000Y-4826000D01*
X-39243000Y-4826000D02*
X-39243000Y-7366000D01*
X-39243000Y-7366000D02*
X-39243000Y-16256000D01*
X-39243000Y-16256000D02*
X-39243000Y-18034000D01*
X-39243000Y-34544000D02*
X-39243000Y-50800000D01*
X-37973000Y-52070000D02*
X-36195000Y-52070000D01*
X-39243000Y-50800000D02*
X-37973000Y-52070000D01*
X-39243000Y-25400000D02*
X-39243000Y-34544000D01*
X-39243000Y-34544000D02*
X-39243000Y-35560000D01*
X-37973000Y-36830000D02*
X-36195000Y-36830000D01*
X-39243000Y-35560000D02*
X-37973000Y-36830000D01*
X-39243000Y-18034000D02*
X-39243000Y-25400000D01*
X-37973000Y-26670000D02*
X-36195000Y-26670000D01*
X-39243000Y-25400000D02*
X-37973000Y-26670000D01*
X-38227000Y-19050000D02*
X-36195000Y-19050000D01*
X-39243000Y-18034000D02*
X-38227000Y-19050000D01*
X-36195000Y-39370000D02*
X-36195000Y-36830000D01*
X-36195000Y-54610000D02*
X-36195000Y-52070000D01*
X-36195000Y-26670000D02*
X-36195000Y-29210000D01*
X-36195000Y-19050000D02*
X-36195000Y-21590000D01*
X-36195000Y-11430000D02*
X-36195000Y-13970000D01*
X-36195000Y-8890000D02*
X-36195000Y-11430000D01*
X-28321000Y-51816000D02*
X-27813000Y-51816000D01*
X-27813000Y-51816000D02*
X-27051000Y-51054000D01*
X-31115000Y-54610000D02*
X-33655000Y-54610000D01*
X-28321000Y-51816000D02*
X-31115000Y-54610000D01*
X-31115000Y-52070000D02*
X-33655000Y-52070000D01*
X-27305000Y-48260000D02*
X-31115000Y-52070000D01*
X-27305000Y-39116000D02*
X-27305000Y-48260000D01*
X-26543000Y-38354000D02*
X-27305000Y-39116000D01*
X-30607000Y-49530000D02*
X-33655000Y-49530000D01*
X-28575000Y-47498000D02*
X-30607000Y-49530000D01*
X-28575000Y-36830000D02*
X-28575000Y-47498000D01*
X-26797000Y-35052000D02*
X-28575000Y-36830000D01*
X-33655000Y-49530000D02*
X-33147000Y-49530000D01*
X-30861000Y-46990000D02*
X-33655000Y-46990000D01*
X-29845000Y-45974000D02*
X-30861000Y-46990000D01*
X-29845000Y-32004002D02*
X-29845000Y-45974000D01*
X-29082998Y-31242000D02*
X-29845000Y-32004002D01*
X-27813000Y-31242000D02*
X-29082998Y-31242000D01*
X-27051000Y-32004000D02*
X-27813000Y-31242000D01*
X-33655000Y-46990000D02*
X-32893000Y-46990000D01*
X-31623000Y-44450000D02*
X-33655000Y-44450000D01*
X-31115000Y-43942000D02*
X-31623000Y-44450000D01*
X-31115000Y-30226000D02*
X-31115000Y-43942000D01*
X-30099000Y-29210000D02*
X-31115000Y-30226000D01*
X-27305000Y-29210000D02*
X-30099000Y-29210000D01*
X-27051000Y-28956000D02*
X-27305000Y-29210000D01*
X19939000Y-18034000D02*
X22479000Y-20574000D01*
X19939000Y-13970000D02*
X19939000Y-18034000D01*
X20193000Y-13716000D02*
X19939000Y-13970000D01*
X31750000Y-31750000D02*
X34925000Y-31750000D01*
X28448000Y-35052000D02*
X31750000Y-31750000D01*
X29972000Y-29210000D02*
X34925000Y-29210000D01*
X29210000Y-29972000D02*
X29972000Y-29210000D01*
X33020000Y-36830000D02*
X34925000Y-36830000D01*
X32512000Y-37338000D02*
X33020000Y-36830000D01*
X32512000Y-41656000D02*
X32512000Y-37338000D01*
X28956000Y-45212000D02*
X32512000Y-41656000D01*
X32512000Y-34290000D02*
X34925000Y-34290000D01*
X31242000Y-35560000D02*
X32512000Y-34290000D01*
X31242000Y-37592000D02*
X31242000Y-35560000D01*
X28702000Y-40132000D02*
X31242000Y-37592000D01*
D24*
G36*
X-25012947Y-733880D02*
X-25367370Y-1264313D01*
X-25491827Y-1890000D01*
X-25367370Y-2515687D01*
X-25012947Y-3046120D01*
X-24842513Y-3160000D01*
X-25012947Y-3273880D01*
X-25367370Y-3804313D01*
X-25491827Y-4430000D01*
X-25367370Y-5055687D01*
X-25012947Y-5586120D01*
X-24842513Y-5700000D01*
X-25012947Y-5813880D01*
X-25367370Y-6344313D01*
X-25491827Y-6970000D01*
X-25367370Y-7595687D01*
X-25012947Y-8126120D01*
X-24842513Y-8240000D01*
X-25012947Y-8353880D01*
X-25367370Y-8884313D01*
X-25491827Y-9510000D01*
X-25367370Y-10135687D01*
X-25012947Y-10666120D01*
X-24820611Y-10794634D01*
X-25060922Y-10983683D01*
X-25374144Y-11541645D01*
X-25405124Y-11669566D01*
X-25285777Y-11923000D01*
X-23442000Y-11923000D01*
X-23442000Y-11903000D01*
X-23188000Y-11903000D01*
X-23188000Y-11923000D01*
X-21344223Y-11923000D01*
X-21224876Y-11669566D01*
X-21255856Y-11541645D01*
X-21569078Y-10983683D01*
X-21809389Y-10794634D01*
X-21617053Y-10666120D01*
X-21262630Y-10135687D01*
X-21138173Y-9510000D01*
X-21262630Y-8884313D01*
X-21617053Y-8353880D01*
X-21631412Y-8344285D01*
X-15700240Y-8344285D01*
X-15489831Y-8853515D01*
X-15273687Y-9070036D01*
X-15488461Y-9284436D01*
X-15699759Y-9793298D01*
X-15700240Y-10344285D01*
X-15489831Y-10853515D01*
X-15273687Y-11070036D01*
X-15488461Y-11284436D01*
X-15699759Y-11793298D01*
X-15700240Y-12344285D01*
X-15489831Y-12853515D01*
X-15273687Y-13070036D01*
X-15488461Y-13284436D01*
X-15699759Y-13793298D01*
X-15700240Y-14344285D01*
X-15489831Y-14853515D01*
X-15273687Y-15070036D01*
X-15488461Y-15284436D01*
X-15699759Y-15793298D01*
X-15700240Y-16344285D01*
X-15489831Y-16853515D01*
X-15273687Y-17070036D01*
X-15488461Y-17284436D01*
X-15699759Y-17793298D01*
X-15700240Y-18344285D01*
X-15489831Y-18853515D01*
X-15273687Y-19070036D01*
X-15488461Y-19284436D01*
X-15699759Y-19793298D01*
X-15700240Y-20344285D01*
X-15489831Y-20853515D01*
X-15273687Y-21070036D01*
X-15488461Y-21284436D01*
X-15699759Y-21793298D01*
X-15700240Y-22344285D01*
X-15489831Y-22853515D01*
X-15100564Y-23243461D01*
X-14591702Y-23454759D01*
X-14040715Y-23455240D01*
X-13531485Y-23244831D01*
X-13314964Y-23028687D01*
X-13100564Y-23243461D01*
X-12591702Y-23454759D01*
X-12040715Y-23455240D01*
X-11531485Y-23244831D01*
X-11141539Y-22855564D01*
X-10930241Y-22346702D01*
X-10929760Y-21795715D01*
X-11140169Y-21286485D01*
X-11356313Y-21069964D01*
X-11141539Y-20855564D01*
X-10930241Y-20346702D01*
X-10929760Y-19795715D01*
X-11140169Y-19286485D01*
X-11356313Y-19069964D01*
X-11141539Y-18855564D01*
X-10930241Y-18346702D01*
X-10929760Y-17795715D01*
X-11140169Y-17286485D01*
X-11529436Y-16896539D01*
X-11766506Y-16798099D01*
X-12315000Y-16249605D01*
X-12863428Y-16798033D01*
X-13098515Y-16895169D01*
X-13315036Y-17111313D01*
X-13356313Y-17069964D01*
X-13141539Y-16855564D01*
X-13043099Y-16618494D01*
X-12494605Y-16070000D01*
X-12135395Y-16070000D01*
X-11343483Y-16861912D01*
X-11102540Y-16793923D01*
X-10917799Y-16274829D01*
X-10945770Y-15724552D01*
X-11102540Y-15346077D01*
X-11343483Y-15278088D01*
X-12135395Y-16070000D01*
X-12494605Y-16070000D01*
X-13043033Y-15521572D01*
X-13140169Y-15286485D01*
X-13356313Y-15069964D01*
X-13314964Y-15028687D01*
X-13100564Y-15243461D01*
X-12863494Y-15341901D01*
X-12315000Y-15890395D01*
X-11766572Y-15341967D01*
X-11531485Y-15244831D01*
X-11141539Y-14855564D01*
X-10930241Y-14346702D01*
X-10929760Y-13795715D01*
X-11140169Y-13286485D01*
X-11356313Y-13069964D01*
X-11141539Y-12855564D01*
X-10930241Y-12346702D01*
X-10929760Y-11795715D01*
X-11140169Y-11286485D01*
X-11356313Y-11069964D01*
X-11141539Y-10855564D01*
X-10930241Y-10346702D01*
X-10929760Y-9795715D01*
X-11140169Y-9286485D01*
X-11356313Y-9069964D01*
X-11141539Y-8855564D01*
X-10930241Y-8346702D01*
X-10929760Y-7795715D01*
X-11140169Y-7286485D01*
X-11356313Y-7069964D01*
X-11141539Y-6855564D01*
X-10930241Y-6346702D01*
X-10930239Y-6344285D01*
X4299760Y-6344285D01*
X4510169Y-6853515D01*
X4726313Y-7070036D01*
X4511539Y-7284436D01*
X4300241Y-7793298D01*
X4299760Y-8344285D01*
X4510169Y-8853515D01*
X4726313Y-9070036D01*
X4511539Y-9284436D01*
X4300241Y-9793298D01*
X4299760Y-10344285D01*
X4510169Y-10853515D01*
X4726313Y-11070036D01*
X4511539Y-11284436D01*
X4300241Y-11793298D01*
X4299760Y-12344285D01*
X4510169Y-12853515D01*
X4726313Y-13070036D01*
X4511539Y-13284436D01*
X4300241Y-13793298D01*
X4299760Y-14344285D01*
X4510169Y-14853515D01*
X4726313Y-15070036D01*
X4511539Y-15284436D01*
X4300241Y-15793298D01*
X4299760Y-16344285D01*
X4510169Y-16853515D01*
X4726313Y-17070036D01*
X4511539Y-17284436D01*
X4300241Y-17793298D01*
X4299760Y-18344285D01*
X4510169Y-18853515D01*
X4726313Y-19070036D01*
X4511539Y-19284436D01*
X4300241Y-19793298D01*
X4299760Y-20344285D01*
X4510169Y-20853515D01*
X4726313Y-21070036D01*
X4511539Y-21284436D01*
X4300241Y-21793298D01*
X4299760Y-22344285D01*
X4510169Y-22853515D01*
X4899436Y-23243461D01*
X5408298Y-23454759D01*
X5959285Y-23455240D01*
X6468515Y-23244831D01*
X6685036Y-23028687D01*
X6899436Y-23243461D01*
X7408298Y-23454759D01*
X7959285Y-23455240D01*
X8468515Y-23244831D01*
X8858461Y-22855564D01*
X9069759Y-22346702D01*
X9070240Y-21795715D01*
X8859831Y-21286485D01*
X8643687Y-21069964D01*
X8858461Y-20855564D01*
X9069759Y-20346702D01*
X9070240Y-19795715D01*
X8859831Y-19286485D01*
X8643687Y-19069964D01*
X8858461Y-18855564D01*
X9069759Y-18346702D01*
X9070240Y-17795715D01*
X8859831Y-17286485D01*
X8643687Y-17069964D01*
X8858461Y-16855564D01*
X9069759Y-16346702D01*
X9070240Y-15795715D01*
X8859831Y-15286485D01*
X8643687Y-15069964D01*
X8858461Y-14855564D01*
X9069759Y-14346702D01*
X9070240Y-13795715D01*
X8859831Y-13286485D01*
X8643687Y-13069964D01*
X8858461Y-12855564D01*
X9069759Y-12346702D01*
X9070240Y-11795715D01*
X8859831Y-11286485D01*
X8643687Y-11069964D01*
X8858461Y-10855564D01*
X9069759Y-10346702D01*
X9070240Y-9795715D01*
X8859831Y-9286485D01*
X8643687Y-9069964D01*
X8858461Y-8855564D01*
X9069759Y-8346702D01*
X9070240Y-7795715D01*
X8859831Y-7286485D01*
X8643687Y-7069964D01*
X8858461Y-6855564D01*
X9069759Y-6346702D01*
X9070240Y-5795715D01*
X8859831Y-5286485D01*
X8470564Y-4896539D01*
X7961702Y-4685241D01*
X7410715Y-4684760D01*
X6901485Y-4895169D01*
X6684964Y-5111313D01*
X6470564Y-4896539D01*
X5961702Y-4685241D01*
X5410715Y-4684760D01*
X4901485Y-4895169D01*
X4511539Y-5284436D01*
X4300241Y-5793298D01*
X4299760Y-6344285D01*
X-10930239Y-6344285D01*
X-10929760Y-5795715D01*
X-11140169Y-5286485D01*
X-11529436Y-4896539D01*
X-12038298Y-4685241D01*
X-12589285Y-4684760D01*
X-13098515Y-4895169D01*
X-13488461Y-5284436D01*
X-13586901Y-5521506D01*
X-14135395Y-6070000D01*
X-13586967Y-6618428D01*
X-13489831Y-6853515D01*
X-13273687Y-7070036D01*
X-13315036Y-7111313D01*
X-13529436Y-6896539D01*
X-13766506Y-6798099D01*
X-14315000Y-6249605D01*
X-14863428Y-6798033D01*
X-15098515Y-6895169D01*
X-15488461Y-7284436D01*
X-15699759Y-7793298D01*
X-15700240Y-8344285D01*
X-21631412Y-8344285D01*
X-21787487Y-8240000D01*
X-21617053Y-8126120D01*
X-21262630Y-7595687D01*
X-21138173Y-6970000D01*
X-21262630Y-6344313D01*
X-21582781Y-5865171D01*
X-15712201Y-5865171D01*
X-15684230Y-6415448D01*
X-15527460Y-6793923D01*
X-15286517Y-6861912D01*
X-14494605Y-6070000D01*
X-15286517Y-5278088D01*
X-15527460Y-5346077D01*
X-15712201Y-5865171D01*
X-21582781Y-5865171D01*
X-21617053Y-5813880D01*
X-21787487Y-5700000D01*
X-21617053Y-5586120D01*
X-21291226Y-5098483D01*
X-15106912Y-5098483D01*
X-14315000Y-5890395D01*
X-13523088Y-5098483D01*
X-13591077Y-4857540D01*
X-14110171Y-4672799D01*
X-14660448Y-4700770D01*
X-15038923Y-4857540D01*
X-15106912Y-5098483D01*
X-21291226Y-5098483D01*
X-21262630Y-5055687D01*
X-21138173Y-4430000D01*
X-21262630Y-3804313D01*
X-21617053Y-3273880D01*
X-21787487Y-3160000D01*
X-21617053Y-3046120D01*
X-21262630Y-2515687D01*
X-21138173Y-1890000D01*
X-21262630Y-1264313D01*
X-21617053Y-733880D01*
X-21652792Y-710000D01*
X14662437Y-710000D01*
X14588569Y-818110D01*
X14537560Y-1070000D01*
X14537560Y-3070000D01*
X14581838Y-3305317D01*
X14720910Y-3521441D01*
X14872639Y-3625113D01*
X14632630Y-3984313D01*
X14508173Y-4610000D01*
X14632630Y-5235687D01*
X14987053Y-5766120D01*
X15157487Y-5880000D01*
X14987053Y-5993880D01*
X14632630Y-6524313D01*
X14508173Y-7150000D01*
X14632630Y-7775687D01*
X14987053Y-8306120D01*
X15157487Y-8420000D01*
X14987053Y-8533880D01*
X14632630Y-9064313D01*
X14508173Y-9690000D01*
X14632630Y-10315687D01*
X14987053Y-10846120D01*
X15157487Y-10960000D01*
X14987053Y-11073880D01*
X14632630Y-11604313D01*
X14508173Y-12230000D01*
X14632630Y-12855687D01*
X14987053Y-13386120D01*
X15157487Y-13500000D01*
X14987053Y-13613880D01*
X14632630Y-14144313D01*
X14508173Y-14770000D01*
X14632630Y-15395687D01*
X14987053Y-15926120D01*
X15157487Y-16040000D01*
X14987053Y-16153880D01*
X14632630Y-16684313D01*
X14508173Y-17310000D01*
X14632630Y-17935687D01*
X14987053Y-18466120D01*
X15157487Y-18580000D01*
X14987053Y-18693880D01*
X14632630Y-19224313D01*
X14508173Y-19850000D01*
X14632630Y-20475687D01*
X14987053Y-21006120D01*
X15157487Y-21120000D01*
X14987053Y-21233880D01*
X14632630Y-21764313D01*
X14508173Y-22390000D01*
X14632630Y-23015687D01*
X14987053Y-23546120D01*
X15157487Y-23660000D01*
X14987053Y-23773880D01*
X14632630Y-24304313D01*
X14508173Y-24930000D01*
X14632630Y-25555687D01*
X14987053Y-26086120D01*
X15157487Y-26200000D01*
X14987053Y-26313880D01*
X14632630Y-26844313D01*
X14508173Y-27470000D01*
X14632630Y-28095687D01*
X14987053Y-28626120D01*
X15157487Y-28740000D01*
X14987053Y-28853880D01*
X14632630Y-29384313D01*
X14508173Y-30010000D01*
X14632630Y-30635687D01*
X14987053Y-31166120D01*
X15157487Y-31280000D01*
X14987053Y-31393880D01*
X14632630Y-31924313D01*
X14508173Y-32550000D01*
X14632630Y-33175687D01*
X14987053Y-33706120D01*
X15157487Y-33820000D01*
X14987053Y-33933880D01*
X14632630Y-34464313D01*
X14508173Y-35090000D01*
X14632630Y-35715687D01*
X14987053Y-36246120D01*
X15157487Y-36360000D01*
X14987053Y-36473880D01*
X14632630Y-37004313D01*
X14508173Y-37630000D01*
X14632630Y-38255687D01*
X14987053Y-38786120D01*
X15157487Y-38900000D01*
X14987053Y-39013880D01*
X14632630Y-39544313D01*
X14508173Y-40170000D01*
X14632630Y-40795687D01*
X14987053Y-41326120D01*
X15157487Y-41440000D01*
X14987053Y-41553880D01*
X14632630Y-42084313D01*
X14508173Y-42710000D01*
X14632630Y-43335687D01*
X14987053Y-43866120D01*
X15157487Y-43980000D01*
X14987053Y-44093880D01*
X14632630Y-44624313D01*
X14508173Y-45250000D01*
X14632630Y-45875687D01*
X14987053Y-46406120D01*
X15517486Y-46760543D01*
X16143173Y-46885000D01*
X17226827Y-46885000D01*
X17852514Y-46760543D01*
X18382947Y-46406120D01*
X18737370Y-45875687D01*
X18861827Y-45250000D01*
X18737370Y-44624313D01*
X18382947Y-44093880D01*
X18212513Y-43980000D01*
X18382947Y-43866120D01*
X18655643Y-43458000D01*
X20196560Y-43458000D01*
X20196560Y-46458000D01*
X20240838Y-46693317D01*
X20379910Y-46909441D01*
X20592110Y-47054431D01*
X20844000Y-47105440D01*
X22844000Y-47105440D01*
X23079317Y-47061162D01*
X23295441Y-46922090D01*
X23399113Y-46770361D01*
X23758313Y-47010370D01*
X24384000Y-47134827D01*
X25009687Y-47010370D01*
X25540120Y-46655947D01*
X25894543Y-46125514D01*
X26019000Y-45499827D01*
X26019000Y-44416173D01*
X25894543Y-43790486D01*
X25540120Y-43260053D01*
X25009687Y-42905630D01*
X24384000Y-42781173D01*
X23758313Y-42905630D01*
X23398045Y-43146353D01*
X23308090Y-43006559D01*
X23095890Y-42861569D01*
X22844000Y-42810560D01*
X20844000Y-42810560D01*
X20608683Y-42854838D01*
X20392559Y-42993910D01*
X20247569Y-43206110D01*
X20196560Y-43458000D01*
X18655643Y-43458000D01*
X18737370Y-43335687D01*
X18861827Y-42710000D01*
X18737370Y-42084313D01*
X18382947Y-41553880D01*
X18212513Y-41440000D01*
X18382947Y-41326120D01*
X18737370Y-40795687D01*
X18861827Y-40170000D01*
X18737370Y-39544313D01*
X18382947Y-39013880D01*
X18212513Y-38900000D01*
X18382947Y-38786120D01*
X18485926Y-38632000D01*
X20196560Y-38632000D01*
X20196560Y-41632000D01*
X20240838Y-41867317D01*
X20379910Y-42083441D01*
X20592110Y-42228431D01*
X20844000Y-42279440D01*
X22844000Y-42279440D01*
X23079317Y-42235162D01*
X23295441Y-42096090D01*
X23399113Y-41944361D01*
X23758313Y-42184370D01*
X24384000Y-42308827D01*
X25009687Y-42184370D01*
X25540120Y-41829947D01*
X25894543Y-41299514D01*
X26019000Y-40673827D01*
X26019000Y-39590173D01*
X25894543Y-38964486D01*
X25540120Y-38434053D01*
X25009687Y-38079630D01*
X24384000Y-37955173D01*
X23758313Y-38079630D01*
X23398045Y-38320353D01*
X23308090Y-38180559D01*
X23095890Y-38035569D01*
X22844000Y-37984560D01*
X20844000Y-37984560D01*
X20608683Y-38028838D01*
X20392559Y-38167910D01*
X20247569Y-38380110D01*
X20196560Y-38632000D01*
X18485926Y-38632000D01*
X18737370Y-38255687D01*
X18861827Y-37630000D01*
X18737370Y-37004313D01*
X18382947Y-36473880D01*
X18212513Y-36360000D01*
X18382947Y-36246120D01*
X18737370Y-35715687D01*
X18861827Y-35090000D01*
X18737370Y-34464313D01*
X18382947Y-33933880D01*
X18212513Y-33820000D01*
X18382947Y-33706120D01*
X18485926Y-33552000D01*
X20196560Y-33552000D01*
X20196560Y-36552000D01*
X20240838Y-36787317D01*
X20379910Y-37003441D01*
X20592110Y-37148431D01*
X20844000Y-37199440D01*
X22844000Y-37199440D01*
X23079317Y-37155162D01*
X23295441Y-37016090D01*
X23399113Y-36864361D01*
X23758313Y-37104370D01*
X24384000Y-37228827D01*
X25009687Y-37104370D01*
X25540120Y-36749947D01*
X25894543Y-36219514D01*
X26019000Y-35593827D01*
X26019000Y-35425305D01*
X26562674Y-35425305D01*
X26849043Y-36118372D01*
X27378839Y-36649093D01*
X28071405Y-36936672D01*
X28821305Y-36937326D01*
X29514372Y-36650957D01*
X30045093Y-36121161D01*
X30332672Y-35428595D01*
X30333326Y-34678695D01*
X30258832Y-34498404D01*
X32118236Y-32639000D01*
X33601105Y-32639000D01*
X33667140Y-32737828D01*
X34089439Y-33020000D01*
X33667140Y-33302172D01*
X33601105Y-33401000D01*
X32512000Y-33401000D01*
X32171794Y-33468671D01*
X31973611Y-33601093D01*
X31883382Y-33661382D01*
X30613382Y-34931382D01*
X30420671Y-35219794D01*
X30353000Y-35560000D01*
X30353000Y-37223764D01*
X29255838Y-38320926D01*
X29078595Y-38247328D01*
X28328695Y-38246674D01*
X27635628Y-38533043D01*
X27104907Y-39062839D01*
X26817328Y-39755405D01*
X26816674Y-40505305D01*
X27103043Y-41198372D01*
X27632839Y-41729093D01*
X28325405Y-42016672D01*
X29075305Y-42017326D01*
X29768372Y-41730957D01*
X30299093Y-41201161D01*
X30586672Y-40508595D01*
X30587326Y-39758695D01*
X30512832Y-39578404D01*
X31623000Y-38468236D01*
X31623000Y-41287764D01*
X29509838Y-43400926D01*
X29332595Y-43327328D01*
X28582695Y-43326674D01*
X27889628Y-43613043D01*
X27358907Y-44142839D01*
X27071328Y-44835405D01*
X27070674Y-45585305D01*
X27357043Y-46278372D01*
X27886839Y-46809093D01*
X28579405Y-47096672D01*
X29329305Y-47097326D01*
X30022372Y-46810957D01*
X30553093Y-46281161D01*
X30840672Y-45588595D01*
X30841326Y-44838695D01*
X30766832Y-44658404D01*
X33140618Y-42284618D01*
X33288470Y-42063343D01*
X33364308Y-42444609D01*
X33667140Y-42897828D01*
X34089439Y-43180000D01*
X33667140Y-43462172D01*
X33364308Y-43915391D01*
X33257968Y-44450000D01*
X33364308Y-44984609D01*
X33667140Y-45437828D01*
X34089439Y-45720000D01*
X33667140Y-46002172D01*
X33364308Y-46455391D01*
X33257968Y-46990000D01*
X33364308Y-47524609D01*
X33667140Y-47977828D01*
X34089439Y-48260000D01*
X33667140Y-48542172D01*
X33364308Y-48995391D01*
X33257968Y-49530000D01*
X33364308Y-50064609D01*
X33667140Y-50517828D01*
X34089439Y-50800000D01*
X33667140Y-51082172D01*
X33364308Y-51535391D01*
X33257968Y-52070000D01*
X33364308Y-52604609D01*
X33667140Y-53057828D01*
X34089439Y-53340000D01*
X33667140Y-53622172D01*
X33364308Y-54075391D01*
X33257968Y-54610000D01*
X33364308Y-55144609D01*
X33667140Y-55597828D01*
X34120359Y-55900660D01*
X34654968Y-56007000D01*
X35195032Y-56007000D01*
X35729641Y-55900660D01*
X36182860Y-55597828D01*
X36206650Y-55562224D01*
X36589086Y-55863422D01*
X37117308Y-56012130D01*
X37338000Y-55853277D01*
X37338000Y-54737000D01*
X37592000Y-54737000D01*
X37592000Y-55853277D01*
X37812692Y-56012130D01*
X38340914Y-55863422D01*
X38772020Y-55523892D01*
X39040377Y-55045230D01*
X39057220Y-54953070D01*
X38934720Y-54737000D01*
X37592000Y-54737000D01*
X37338000Y-54737000D01*
X37318000Y-54737000D01*
X37318000Y-54483000D01*
X37338000Y-54483000D01*
X37338000Y-53366723D01*
X37300874Y-53340000D01*
X37338000Y-53313277D01*
X37338000Y-52197000D01*
X37592000Y-52197000D01*
X37592000Y-53313277D01*
X37629126Y-53340000D01*
X37592000Y-53366723D01*
X37592000Y-54483000D01*
X38934720Y-54483000D01*
X39057220Y-54266930D01*
X39040377Y-54174770D01*
X38772020Y-53696108D01*
X38340914Y-53356578D01*
X38282028Y-53340000D01*
X38340914Y-53323422D01*
X38772020Y-52983892D01*
X39040377Y-52505230D01*
X39057220Y-52413070D01*
X38934720Y-52197000D01*
X37592000Y-52197000D01*
X37338000Y-52197000D01*
X37318000Y-52197000D01*
X37318000Y-51943000D01*
X37338000Y-51943000D01*
X37338000Y-51923000D01*
X37592000Y-51923000D01*
X37592000Y-51943000D01*
X38934720Y-51943000D01*
X39057220Y-51726930D01*
X39040377Y-51634770D01*
X38772020Y-51156108D01*
X38340914Y-50816578D01*
X38295067Y-50803671D01*
X38722860Y-50517828D01*
X39025692Y-50064609D01*
X39132032Y-49530000D01*
X39025692Y-48995391D01*
X38722860Y-48542172D01*
X38300561Y-48260000D01*
X38722860Y-47977828D01*
X39025692Y-47524609D01*
X39132032Y-46990000D01*
X39025692Y-46455391D01*
X38722860Y-46002172D01*
X38295067Y-45716329D01*
X38340914Y-45703422D01*
X38772020Y-45363892D01*
X39040377Y-44885230D01*
X39057220Y-44793070D01*
X38934720Y-44577000D01*
X37592000Y-44577000D01*
X37592000Y-44597000D01*
X37338000Y-44597000D01*
X37338000Y-44577000D01*
X37318000Y-44577000D01*
X37318000Y-44323000D01*
X37338000Y-44323000D01*
X37338000Y-43206723D01*
X37300874Y-43180000D01*
X37338000Y-43153277D01*
X37338000Y-42037000D01*
X37592000Y-42037000D01*
X37592000Y-43153277D01*
X37629126Y-43180000D01*
X37592000Y-43206723D01*
X37592000Y-44323000D01*
X38934720Y-44323000D01*
X39057220Y-44106930D01*
X39040377Y-44014770D01*
X38772020Y-43536108D01*
X38340914Y-43196578D01*
X38282028Y-43180000D01*
X38340914Y-43163422D01*
X38772020Y-42823892D01*
X39040377Y-42345230D01*
X39057220Y-42253070D01*
X38934720Y-42037000D01*
X37592000Y-42037000D01*
X37338000Y-42037000D01*
X37318000Y-42037000D01*
X37318000Y-41783000D01*
X37338000Y-41783000D01*
X37338000Y-40666723D01*
X37300874Y-40640000D01*
X37338000Y-40613277D01*
X37338000Y-39497000D01*
X37592000Y-39497000D01*
X37592000Y-40613277D01*
X37629126Y-40640000D01*
X37592000Y-40666723D01*
X37592000Y-41783000D01*
X38934720Y-41783000D01*
X39057220Y-41566930D01*
X39040377Y-41474770D01*
X38772020Y-40996108D01*
X38340914Y-40656578D01*
X38282028Y-40640000D01*
X38340914Y-40623422D01*
X38772020Y-40283892D01*
X39040377Y-39805230D01*
X39057220Y-39713070D01*
X38934720Y-39497000D01*
X37592000Y-39497000D01*
X37338000Y-39497000D01*
X37318000Y-39497000D01*
X37318000Y-39243000D01*
X37338000Y-39243000D01*
X37338000Y-38126723D01*
X37300874Y-38100000D01*
X37338000Y-38073277D01*
X37338000Y-36957000D01*
X37592000Y-36957000D01*
X37592000Y-38073277D01*
X37629126Y-38100000D01*
X37592000Y-38126723D01*
X37592000Y-39243000D01*
X38934720Y-39243000D01*
X39057220Y-39026930D01*
X39040377Y-38934770D01*
X38772020Y-38456108D01*
X38340914Y-38116578D01*
X38282028Y-38100000D01*
X38340914Y-38083422D01*
X38772020Y-37743892D01*
X39040377Y-37265230D01*
X39057220Y-37173070D01*
X38934720Y-36957000D01*
X37592000Y-36957000D01*
X37338000Y-36957000D01*
X37318000Y-36957000D01*
X37318000Y-36703000D01*
X37338000Y-36703000D01*
X37338000Y-35586723D01*
X37300874Y-35560000D01*
X37338000Y-35533277D01*
X37338000Y-34417000D01*
X37592000Y-34417000D01*
X37592000Y-35533277D01*
X37629126Y-35560000D01*
X37592000Y-35586723D01*
X37592000Y-36703000D01*
X38934720Y-36703000D01*
X39057220Y-36486930D01*
X39040377Y-36394770D01*
X38772020Y-35916108D01*
X38340914Y-35576578D01*
X38282028Y-35560000D01*
X38340914Y-35543422D01*
X38772020Y-35203892D01*
X39040377Y-34725230D01*
X39057220Y-34633070D01*
X38934720Y-34417000D01*
X37592000Y-34417000D01*
X37338000Y-34417000D01*
X37318000Y-34417000D01*
X37318000Y-34163000D01*
X37338000Y-34163000D01*
X37338000Y-33046723D01*
X37300874Y-33020000D01*
X37338000Y-32993277D01*
X37338000Y-31877000D01*
X37592000Y-31877000D01*
X37592000Y-32993277D01*
X37629126Y-33020000D01*
X37592000Y-33046723D01*
X37592000Y-34163000D01*
X38934720Y-34163000D01*
X39057220Y-33946930D01*
X39040377Y-33854770D01*
X38772020Y-33376108D01*
X38340914Y-33036578D01*
X38282028Y-33020000D01*
X38340914Y-33003422D01*
X38772020Y-32663892D01*
X39040377Y-32185230D01*
X39057220Y-32093070D01*
X38934720Y-31877000D01*
X37592000Y-31877000D01*
X37338000Y-31877000D01*
X37318000Y-31877000D01*
X37318000Y-31623000D01*
X37338000Y-31623000D01*
X37338000Y-30506723D01*
X37300874Y-30480000D01*
X37338000Y-30453277D01*
X37338000Y-29337000D01*
X37592000Y-29337000D01*
X37592000Y-30453277D01*
X37629126Y-30480000D01*
X37592000Y-30506723D01*
X37592000Y-31623000D01*
X38934720Y-31623000D01*
X39057220Y-31406930D01*
X39040377Y-31314770D01*
X38772020Y-30836108D01*
X38340914Y-30496578D01*
X38282028Y-30480000D01*
X38340914Y-30463422D01*
X38772020Y-30123892D01*
X39040377Y-29645230D01*
X39057220Y-29553070D01*
X38934720Y-29337000D01*
X37592000Y-29337000D01*
X37338000Y-29337000D01*
X37318000Y-29337000D01*
X37318000Y-29083000D01*
X37338000Y-29083000D01*
X37338000Y-29063000D01*
X37592000Y-29063000D01*
X37592000Y-29083000D01*
X38934720Y-29083000D01*
X39057220Y-28866930D01*
X39040377Y-28774770D01*
X38772020Y-28296108D01*
X38340914Y-27956578D01*
X38295067Y-27943671D01*
X38722860Y-27657828D01*
X39025692Y-27204609D01*
X39132032Y-26670000D01*
X39025692Y-26135391D01*
X38722860Y-25682172D01*
X38300561Y-25400000D01*
X38722860Y-25117828D01*
X39025692Y-24664609D01*
X39132032Y-24130000D01*
X39025692Y-23595391D01*
X38722860Y-23142172D01*
X38300561Y-22860000D01*
X38722860Y-22577828D01*
X39025692Y-22124609D01*
X39132032Y-21590000D01*
X39025692Y-21055391D01*
X38722860Y-20602172D01*
X38300561Y-20320000D01*
X38722860Y-20037828D01*
X39025692Y-19584609D01*
X39132032Y-19050000D01*
X39025692Y-18515391D01*
X38722860Y-18062172D01*
X38300561Y-17780000D01*
X38722860Y-17497828D01*
X39025692Y-17044609D01*
X39132032Y-16510000D01*
X39025692Y-15975391D01*
X38722860Y-15522172D01*
X38300561Y-15240000D01*
X38722860Y-14957828D01*
X39025692Y-14504609D01*
X39132032Y-13970000D01*
X39025692Y-13435391D01*
X38722860Y-12982172D01*
X38300561Y-12700000D01*
X38722860Y-12417828D01*
X39025692Y-11964609D01*
X39132032Y-11430000D01*
X39025692Y-10895391D01*
X38722860Y-10442172D01*
X38295067Y-10156329D01*
X38340914Y-10143422D01*
X38772020Y-9803892D01*
X39040377Y-9325230D01*
X39057220Y-9233070D01*
X38934720Y-9017000D01*
X37592000Y-9017000D01*
X37592000Y-9037000D01*
X37338000Y-9037000D01*
X37338000Y-9017000D01*
X37318000Y-9017000D01*
X37318000Y-8763000D01*
X37338000Y-8763000D01*
X37338000Y-8743000D01*
X37592000Y-8743000D01*
X37592000Y-8763000D01*
X38934720Y-8763000D01*
X39057220Y-8546930D01*
X39040377Y-8454770D01*
X38772020Y-7976108D01*
X38340914Y-7636578D01*
X38295067Y-7623671D01*
X38722860Y-7337828D01*
X39025692Y-6884609D01*
X39132032Y-6350000D01*
X39025692Y-5815391D01*
X38722860Y-5362172D01*
X38269641Y-5059340D01*
X37735032Y-4953000D01*
X37194968Y-4953000D01*
X36660359Y-5059340D01*
X36435907Y-5209314D01*
X36389090Y-5136559D01*
X36176890Y-4991569D01*
X35925000Y-4940560D01*
X33925000Y-4940560D01*
X33689683Y-4984838D01*
X33473559Y-5123910D01*
X33328569Y-5336110D01*
X33277560Y-5588000D01*
X33277560Y-7112000D01*
X33321838Y-7347317D01*
X33460910Y-7563441D01*
X33673110Y-7708431D01*
X33891044Y-7752564D01*
X33667140Y-7902172D01*
X33364308Y-8355391D01*
X33257968Y-8890000D01*
X33364308Y-9424609D01*
X33667140Y-9877828D01*
X34089439Y-10160000D01*
X33667140Y-10442172D01*
X33364308Y-10895391D01*
X33257968Y-11430000D01*
X33364308Y-11964609D01*
X33667140Y-12417828D01*
X34089439Y-12700000D01*
X33667140Y-12982172D01*
X33364308Y-13435391D01*
X33257968Y-13970000D01*
X33364308Y-14504609D01*
X33667140Y-14957828D01*
X34089439Y-15240000D01*
X33667140Y-15522172D01*
X33364308Y-15975391D01*
X33257968Y-16510000D01*
X33364308Y-17044609D01*
X33667140Y-17497828D01*
X34089439Y-17780000D01*
X33667140Y-18062172D01*
X33364308Y-18515391D01*
X33257968Y-19050000D01*
X33364308Y-19584609D01*
X33667140Y-20037828D01*
X34089439Y-20320000D01*
X33667140Y-20602172D01*
X33364308Y-21055391D01*
X33257968Y-21590000D01*
X33364308Y-22124609D01*
X33667140Y-22577828D01*
X34089439Y-22860000D01*
X33667140Y-23142172D01*
X33364308Y-23595391D01*
X33257968Y-24130000D01*
X33364308Y-24664609D01*
X33667140Y-25117828D01*
X34089439Y-25400000D01*
X33667140Y-25682172D01*
X33364308Y-26135391D01*
X33257968Y-26670000D01*
X33364308Y-27204609D01*
X33667140Y-27657828D01*
X34089439Y-27940000D01*
X33667140Y-28222172D01*
X33601105Y-28321000D01*
X30149339Y-28321000D01*
X29586595Y-28087328D01*
X28836695Y-28086674D01*
X28143628Y-28373043D01*
X27612907Y-28902839D01*
X27325328Y-29595405D01*
X27324674Y-30345305D01*
X27611043Y-31038372D01*
X28140839Y-31569093D01*
X28833405Y-31856672D01*
X29583305Y-31857326D01*
X30276372Y-31570957D01*
X30807093Y-31041161D01*
X31094672Y-30348595D01*
X31094890Y-30099000D01*
X33601105Y-30099000D01*
X33667140Y-30197828D01*
X34089439Y-30480000D01*
X33667140Y-30762172D01*
X33601105Y-30861000D01*
X31750000Y-30861000D01*
X31409794Y-30928671D01*
X31241441Y-31041161D01*
X31121382Y-31121382D01*
X29001838Y-33240926D01*
X28824595Y-33167328D01*
X28074695Y-33166674D01*
X27381628Y-33453043D01*
X26850907Y-33982839D01*
X26563328Y-34675405D01*
X26562674Y-35425305D01*
X26019000Y-35425305D01*
X26019000Y-34510173D01*
X25894543Y-33884486D01*
X25540120Y-33354053D01*
X25009687Y-32999630D01*
X24384000Y-32875173D01*
X23758313Y-32999630D01*
X23398045Y-33240353D01*
X23308090Y-33100559D01*
X23095890Y-32955569D01*
X22844000Y-32904560D01*
X20844000Y-32904560D01*
X20608683Y-32948838D01*
X20392559Y-33087910D01*
X20247569Y-33300110D01*
X20196560Y-33552000D01*
X18485926Y-33552000D01*
X18737370Y-33175687D01*
X18861827Y-32550000D01*
X18737370Y-31924313D01*
X18382947Y-31393880D01*
X18212513Y-31280000D01*
X18382947Y-31166120D01*
X18737370Y-30635687D01*
X18861827Y-30010000D01*
X18737370Y-29384313D01*
X18382947Y-28853880D01*
X18212513Y-28740000D01*
X18382947Y-28626120D01*
X18485926Y-28472000D01*
X20196560Y-28472000D01*
X20196560Y-31472000D01*
X20240838Y-31707317D01*
X20379910Y-31923441D01*
X20592110Y-32068431D01*
X20844000Y-32119440D01*
X22844000Y-32119440D01*
X23079317Y-32075162D01*
X23295441Y-31936090D01*
X23399113Y-31784361D01*
X23758313Y-32024370D01*
X24384000Y-32148827D01*
X25009687Y-32024370D01*
X25540120Y-31669947D01*
X25894543Y-31139514D01*
X26019000Y-30513827D01*
X26019000Y-29430173D01*
X25894543Y-28804486D01*
X25540120Y-28274053D01*
X25009687Y-27919630D01*
X24384000Y-27795173D01*
X23758313Y-27919630D01*
X23398045Y-28160353D01*
X23308090Y-28020559D01*
X23095890Y-27875569D01*
X22844000Y-27824560D01*
X20844000Y-27824560D01*
X20608683Y-27868838D01*
X20392559Y-28007910D01*
X20247569Y-28220110D01*
X20196560Y-28472000D01*
X18485926Y-28472000D01*
X18737370Y-28095687D01*
X18861827Y-27470000D01*
X18737370Y-26844313D01*
X18382947Y-26313880D01*
X18212513Y-26200000D01*
X18382947Y-26086120D01*
X18737370Y-25555687D01*
X18861827Y-24930000D01*
X18737370Y-24304313D01*
X18382947Y-23773880D01*
X18212513Y-23660000D01*
X18382947Y-23546120D01*
X18737370Y-23015687D01*
X18861827Y-22390000D01*
X18737370Y-21764313D01*
X18382947Y-21233880D01*
X18212513Y-21120000D01*
X18382947Y-21006120D01*
X18737370Y-20475687D01*
X18861827Y-19850000D01*
X18737370Y-19224313D01*
X18382947Y-18693880D01*
X18212513Y-18580000D01*
X18382947Y-18466120D01*
X18737370Y-17935687D01*
X18861827Y-17310000D01*
X18737370Y-16684313D01*
X18382947Y-16153880D01*
X18212513Y-16040000D01*
X18382947Y-15926120D01*
X18737370Y-15395687D01*
X18815282Y-15003997D01*
X19050000Y-15239125D01*
X19050000Y-18034000D01*
X19117671Y-18374206D01*
X19212008Y-18515391D01*
X19310382Y-18662618D01*
X20667926Y-20020162D01*
X20594328Y-20197405D01*
X20593674Y-20947305D01*
X20880043Y-21640372D01*
X21301273Y-22062337D01*
X21233559Y-22105910D01*
X21088569Y-22318110D01*
X21037560Y-22570000D01*
X21037560Y-25570000D01*
X21081838Y-25805317D01*
X21220910Y-26021441D01*
X21433110Y-26166431D01*
X21685000Y-26217440D01*
X23685000Y-26217440D01*
X23920317Y-26173162D01*
X24136441Y-26034090D01*
X24240113Y-25882361D01*
X24599313Y-26122370D01*
X25225000Y-26246827D01*
X25850687Y-26122370D01*
X26381120Y-25767947D01*
X26495000Y-25597513D01*
X26608880Y-25767947D01*
X27139313Y-26122370D01*
X27765000Y-26246827D01*
X28390687Y-26122370D01*
X28921120Y-25767947D01*
X29275543Y-25237514D01*
X29400000Y-24611827D01*
X29400000Y-23528173D01*
X29275543Y-22902486D01*
X28921120Y-22372053D01*
X28390687Y-22017630D01*
X27765000Y-21893173D01*
X27139313Y-22017630D01*
X26608880Y-22372053D01*
X26495000Y-22542487D01*
X26381120Y-22372053D01*
X25850687Y-22017630D01*
X25225000Y-21893173D01*
X24599313Y-22017630D01*
X24239045Y-22258353D01*
X24149090Y-22118559D01*
X23936890Y-21973569D01*
X23777452Y-21941282D01*
X24076093Y-21643161D01*
X24363672Y-20950595D01*
X24364326Y-20200695D01*
X24077957Y-19507628D01*
X23548161Y-18976907D01*
X22855595Y-18689328D01*
X22105695Y-18688674D01*
X21925404Y-18763168D01*
X20828000Y-17665764D01*
X20828000Y-15493196D01*
X21259372Y-15314957D01*
X21790093Y-14785161D01*
X22077672Y-14092595D01*
X22078326Y-13342695D01*
X21791957Y-12649628D01*
X21262161Y-12118907D01*
X20569595Y-11831328D01*
X19819695Y-11830674D01*
X19126628Y-12117043D01*
X18824255Y-12418889D01*
X18861827Y-12230000D01*
X18737370Y-11604313D01*
X18382947Y-11073880D01*
X18212513Y-10960000D01*
X18382947Y-10846120D01*
X18737370Y-10315687D01*
X18770327Y-10150000D01*
X22017968Y-10150000D01*
X22142425Y-10775687D01*
X22496848Y-11306120D01*
X22667282Y-11420000D01*
X22496848Y-11533880D01*
X22142425Y-12064313D01*
X22017968Y-12690000D01*
X22142425Y-13315687D01*
X22496848Y-13846120D01*
X22667282Y-13960000D01*
X22496848Y-14073880D01*
X22142425Y-14604313D01*
X22017968Y-15230000D01*
X22142425Y-15855687D01*
X22496848Y-16386120D01*
X23027281Y-16740543D01*
X23652968Y-16865000D01*
X23717032Y-16865000D01*
X24342719Y-16740543D01*
X24873152Y-16386120D01*
X24955000Y-16263625D01*
X25036848Y-16386120D01*
X25567281Y-16740543D01*
X26192968Y-16865000D01*
X26257032Y-16865000D01*
X26882719Y-16740543D01*
X27413152Y-16386120D01*
X27767575Y-15855687D01*
X27892032Y-15230000D01*
X27767575Y-14604313D01*
X27413152Y-14073880D01*
X27242718Y-13960000D01*
X27413152Y-13846120D01*
X27767575Y-13315687D01*
X27892032Y-12690000D01*
X27767575Y-12064313D01*
X27413152Y-11533880D01*
X27242718Y-11420000D01*
X27413152Y-11306120D01*
X27767575Y-10775687D01*
X27892032Y-10150000D01*
X27767575Y-9524313D01*
X27413152Y-8993880D01*
X27237660Y-8876621D01*
X27618402Y-8465385D01*
X27815124Y-7990434D01*
X27695777Y-7737000D01*
X26352000Y-7737000D01*
X26352000Y-7757000D01*
X26098000Y-7757000D01*
X26098000Y-7737000D01*
X23812000Y-7737000D01*
X23812000Y-7757000D01*
X23558000Y-7757000D01*
X23558000Y-7737000D01*
X22214223Y-7737000D01*
X22094876Y-7990434D01*
X22291598Y-8465385D01*
X22672340Y-8876621D01*
X22496848Y-8993880D01*
X22142425Y-9524313D01*
X22017968Y-10150000D01*
X18770327Y-10150000D01*
X18861827Y-9690000D01*
X18737370Y-9064313D01*
X18382947Y-8533880D01*
X18212513Y-8420000D01*
X18382947Y-8306120D01*
X18737370Y-7775687D01*
X18861827Y-7150000D01*
X18737370Y-6524313D01*
X18382947Y-5993880D01*
X18212513Y-5880000D01*
X18382947Y-5766120D01*
X18737370Y-5235687D01*
X18861827Y-4610000D01*
X18754415Y-4070000D01*
X22037560Y-4070000D01*
X22037560Y-6070000D01*
X22081838Y-6305317D01*
X22220910Y-6521441D01*
X22396440Y-6641376D01*
X22291598Y-6754615D01*
X22094876Y-7229566D01*
X22214223Y-7483000D01*
X23558000Y-7483000D01*
X23558000Y-7463000D01*
X23812000Y-7463000D01*
X23812000Y-7483000D01*
X26098000Y-7483000D01*
X26098000Y-7463000D01*
X26352000Y-7463000D01*
X26352000Y-7483000D01*
X27695777Y-7483000D01*
X27815124Y-7229566D01*
X27618402Y-6754615D01*
X27237660Y-6343379D01*
X27413152Y-6226120D01*
X27767575Y-5695687D01*
X27892032Y-5070000D01*
X27767575Y-4444313D01*
X27413152Y-3913880D01*
X26882719Y-3559457D01*
X26257032Y-3435000D01*
X26192968Y-3435000D01*
X25567281Y-3559457D01*
X25248236Y-3772636D01*
X25149090Y-3618559D01*
X24936890Y-3473569D01*
X24685000Y-3422560D01*
X22685000Y-3422560D01*
X22449683Y-3466838D01*
X22233559Y-3605910D01*
X22088569Y-3818110D01*
X22037560Y-4070000D01*
X18754415Y-4070000D01*
X18737370Y-3984313D01*
X18496647Y-3624045D01*
X18636441Y-3534090D01*
X18781431Y-3321890D01*
X18832440Y-3070000D01*
X18832440Y-1070000D01*
X18788162Y-834683D01*
X18707931Y-710000D01*
X42470000Y-710000D01*
X42470000Y-60250000D01*
X21030000Y-60250000D01*
X21030000Y-51435000D01*
X20975954Y-51163295D01*
X20822046Y-50932954D01*
X20591705Y-50779046D01*
X20320000Y-50725000D01*
X-21590000Y-50725000D01*
X-21861705Y-50779046D01*
X-22092046Y-50932954D01*
X-22245954Y-51163295D01*
X-22300000Y-51435000D01*
X-22300000Y-60250000D01*
X-42470000Y-60250000D01*
X-42470000Y-54953070D01*
X-37787220Y-54953070D01*
X-37770377Y-55045230D01*
X-37502020Y-55523892D01*
X-37070914Y-55863422D01*
X-36542692Y-56012130D01*
X-36322000Y-55853277D01*
X-36322000Y-54737000D01*
X-37664720Y-54737000D01*
X-37787220Y-54953070D01*
X-42470000Y-54953070D01*
X-42470000Y-52413070D01*
X-37787220Y-52413070D01*
X-37770377Y-52505230D01*
X-37502020Y-52983892D01*
X-37070914Y-53323422D01*
X-37012028Y-53340000D01*
X-37070914Y-53356578D01*
X-37502020Y-53696108D01*
X-37770377Y-54174770D01*
X-37787220Y-54266930D01*
X-37664720Y-54483000D01*
X-36322000Y-54483000D01*
X-36322000Y-53366723D01*
X-36359126Y-53340000D01*
X-36322000Y-53313277D01*
X-36322000Y-52197000D01*
X-37664720Y-52197000D01*
X-37787220Y-52413070D01*
X-42470000Y-52413070D01*
X-42470000Y-37173070D01*
X-37787220Y-37173070D01*
X-37770377Y-37265230D01*
X-37502020Y-37743892D01*
X-37070914Y-38083422D01*
X-37012028Y-38100000D01*
X-37070914Y-38116578D01*
X-37502020Y-38456108D01*
X-37770377Y-38934770D01*
X-37787220Y-39026930D01*
X-37664720Y-39243000D01*
X-36322000Y-39243000D01*
X-36322000Y-38126723D01*
X-36359126Y-38100000D01*
X-36322000Y-38073277D01*
X-36322000Y-36957000D01*
X-37664720Y-36957000D01*
X-37787220Y-37173070D01*
X-42470000Y-37173070D01*
X-42470000Y-27013070D01*
X-37787220Y-27013070D01*
X-37770377Y-27105230D01*
X-37502020Y-27583892D01*
X-37070914Y-27923422D01*
X-37012028Y-27940000D01*
X-37070914Y-27956578D01*
X-37502020Y-28296108D01*
X-37770377Y-28774770D01*
X-37787220Y-28866930D01*
X-37664720Y-29083000D01*
X-36322000Y-29083000D01*
X-36322000Y-27966723D01*
X-36359126Y-27940000D01*
X-36322000Y-27913277D01*
X-36322000Y-26797000D01*
X-37664720Y-26797000D01*
X-37787220Y-27013070D01*
X-42470000Y-27013070D01*
X-42470000Y-19393070D01*
X-37787220Y-19393070D01*
X-37770377Y-19485230D01*
X-37502020Y-19963892D01*
X-37070914Y-20303422D01*
X-37012028Y-20320000D01*
X-37070914Y-20336578D01*
X-37502020Y-20676108D01*
X-37770377Y-21154770D01*
X-37787220Y-21246930D01*
X-37664720Y-21463000D01*
X-36322000Y-21463000D01*
X-36322000Y-20346723D01*
X-36359126Y-20320000D01*
X-36322000Y-20293277D01*
X-36322000Y-19177000D01*
X-37664720Y-19177000D01*
X-37787220Y-19393070D01*
X-42470000Y-19393070D01*
X-42470000Y-16510000D01*
X-37862032Y-16510000D01*
X-37755692Y-17044609D01*
X-37452860Y-17497828D01*
X-37025067Y-17783671D01*
X-37070914Y-17796578D01*
X-37502020Y-18136108D01*
X-37770377Y-18614770D01*
X-37787220Y-18706930D01*
X-37664720Y-18923000D01*
X-36322000Y-18923000D01*
X-36322000Y-18903000D01*
X-36068000Y-18903000D01*
X-36068000Y-18923000D01*
X-36048000Y-18923000D01*
X-36048000Y-19177000D01*
X-36068000Y-19177000D01*
X-36068000Y-20293277D01*
X-36030874Y-20320000D01*
X-36068000Y-20346723D01*
X-36068000Y-21463000D01*
X-36048000Y-21463000D01*
X-36048000Y-21717000D01*
X-36068000Y-21717000D01*
X-36068000Y-21737000D01*
X-36322000Y-21737000D01*
X-36322000Y-21717000D01*
X-37664720Y-21717000D01*
X-37787220Y-21933070D01*
X-37770377Y-22025230D01*
X-37502020Y-22503892D01*
X-37070914Y-22843422D01*
X-37025067Y-22856329D01*
X-37452860Y-23142172D01*
X-37755692Y-23595391D01*
X-37862032Y-24130000D01*
X-37755692Y-24664609D01*
X-37452860Y-25117828D01*
X-37025067Y-25403671D01*
X-37070914Y-25416578D01*
X-37502020Y-25756108D01*
X-37770377Y-26234770D01*
X-37787220Y-26326930D01*
X-37664720Y-26543000D01*
X-36322000Y-26543000D01*
X-36322000Y-26523000D01*
X-36068000Y-26523000D01*
X-36068000Y-26543000D01*
X-36048000Y-26543000D01*
X-36048000Y-26797000D01*
X-36068000Y-26797000D01*
X-36068000Y-27913277D01*
X-36030874Y-27940000D01*
X-36068000Y-27966723D01*
X-36068000Y-29083000D01*
X-36048000Y-29083000D01*
X-36048000Y-29337000D01*
X-36068000Y-29337000D01*
X-36068000Y-29357000D01*
X-36322000Y-29357000D01*
X-36322000Y-29337000D01*
X-37664720Y-29337000D01*
X-37787220Y-29553070D01*
X-37770377Y-29645230D01*
X-37502020Y-30123892D01*
X-37070914Y-30463422D01*
X-37025067Y-30476329D01*
X-37452860Y-30762172D01*
X-37755692Y-31215391D01*
X-37862032Y-31750000D01*
X-37755692Y-32284609D01*
X-37452860Y-32737828D01*
X-37030561Y-33020000D01*
X-37452860Y-33302172D01*
X-37755692Y-33755391D01*
X-37862032Y-34290000D01*
X-37755692Y-34824609D01*
X-37452860Y-35277828D01*
X-37025067Y-35563671D01*
X-37070914Y-35576578D01*
X-37502020Y-35916108D01*
X-37770377Y-36394770D01*
X-37787220Y-36486930D01*
X-37664720Y-36703000D01*
X-36322000Y-36703000D01*
X-36322000Y-36683000D01*
X-36068000Y-36683000D01*
X-36068000Y-36703000D01*
X-36048000Y-36703000D01*
X-36048000Y-36957000D01*
X-36068000Y-36957000D01*
X-36068000Y-38073277D01*
X-36030874Y-38100000D01*
X-36068000Y-38126723D01*
X-36068000Y-39243000D01*
X-36048000Y-39243000D01*
X-36048000Y-39497000D01*
X-36068000Y-39497000D01*
X-36068000Y-39517000D01*
X-36322000Y-39517000D01*
X-36322000Y-39497000D01*
X-37664720Y-39497000D01*
X-37787220Y-39713070D01*
X-37770377Y-39805230D01*
X-37502020Y-40283892D01*
X-37070914Y-40623422D01*
X-37025067Y-40636329D01*
X-37452860Y-40922172D01*
X-37755692Y-41375391D01*
X-37862032Y-41910000D01*
X-37755692Y-42444609D01*
X-37452860Y-42897828D01*
X-37030561Y-43180000D01*
X-37452860Y-43462172D01*
X-37755692Y-43915391D01*
X-37862032Y-44450000D01*
X-37755692Y-44984609D01*
X-37452860Y-45437828D01*
X-37030561Y-45720000D01*
X-37452860Y-46002172D01*
X-37755692Y-46455391D01*
X-37862032Y-46990000D01*
X-37755692Y-47524609D01*
X-37452860Y-47977828D01*
X-37030561Y-48260000D01*
X-37452860Y-48542172D01*
X-37755692Y-48995391D01*
X-37862032Y-49530000D01*
X-37755692Y-50064609D01*
X-37452860Y-50517828D01*
X-37025067Y-50803671D01*
X-37070914Y-50816578D01*
X-37502020Y-51156108D01*
X-37770377Y-51634770D01*
X-37787220Y-51726930D01*
X-37664720Y-51943000D01*
X-36322000Y-51943000D01*
X-36322000Y-51923000D01*
X-36068000Y-51923000D01*
X-36068000Y-51943000D01*
X-36048000Y-51943000D01*
X-36048000Y-52197000D01*
X-36068000Y-52197000D01*
X-36068000Y-53313277D01*
X-36030874Y-53340000D01*
X-36068000Y-53366723D01*
X-36068000Y-54483000D01*
X-36048000Y-54483000D01*
X-36048000Y-54737000D01*
X-36068000Y-54737000D01*
X-36068000Y-55853277D01*
X-35847308Y-56012130D01*
X-35319086Y-55863422D01*
X-34936650Y-55562224D01*
X-34912860Y-55597828D01*
X-34459641Y-55900660D01*
X-33925032Y-56007000D01*
X-33384968Y-56007000D01*
X-32850359Y-55900660D01*
X-32397140Y-55597828D01*
X-32331105Y-55499000D01*
X-31115000Y-55499000D01*
X-30774794Y-55431329D01*
X-30486382Y-55238618D01*
X-27963789Y-52716025D01*
X-27427595Y-52938672D01*
X-26677695Y-52939326D01*
X-25984628Y-52652957D01*
X-25453907Y-52123161D01*
X-25166328Y-51430595D01*
X-25165674Y-50680695D01*
X-25452043Y-49987628D01*
X-25981839Y-49456907D01*
X-26674405Y-49169328D01*
X-26956846Y-49169082D01*
X-26676382Y-48888618D01*
X-26483670Y-48600205D01*
X-26416000Y-48260000D01*
X-26416000Y-48083970D01*
X-2149365Y-48083970D01*
X-1989582Y-48402739D01*
X-1198813Y-48712723D01*
X-349613Y-48696497D01*
X359582Y-48402739D01*
X519365Y-48083970D01*
X-815000Y-46749605D01*
X-2149365Y-48083970D01*
X-26416000Y-48083970D01*
X-26416000Y-44070000D01*
X-25462440Y-44070000D01*
X-25462440Y-46070000D01*
X-25418162Y-46305317D01*
X-25279090Y-46521441D01*
X-25066890Y-46666431D01*
X-24815000Y-46717440D01*
X-21815000Y-46717440D01*
X-21579683Y-46673162D01*
X-21363559Y-46534090D01*
X-21218569Y-46321890D01*
X-21191089Y-46186187D01*
X-2957723Y-46186187D01*
X-2941497Y-47035387D01*
X-2647739Y-47744582D01*
X-2328970Y-47904365D01*
X-994605Y-46570000D01*
X-635395Y-46570000D01*
X698970Y-47904365D01*
X1017739Y-47744582D01*
X1312434Y-46992815D01*
X1549630Y-46992815D01*
X1873980Y-47777800D01*
X2474041Y-48378909D01*
X3258459Y-48704628D01*
X4107815Y-48705370D01*
X4892800Y-48381020D01*
X5493909Y-47780959D01*
X5819628Y-46996541D01*
X5820370Y-46147185D01*
X5496020Y-45362200D01*
X4895959Y-44761091D01*
X4111541Y-44435372D01*
X3262185Y-44434630D01*
X2477200Y-44758980D01*
X1876091Y-45359041D01*
X1550372Y-46143459D01*
X1549630Y-46992815D01*
X1312434Y-46992815D01*
X1327723Y-46953813D01*
X1311497Y-46104613D01*
X1017739Y-45395418D01*
X698970Y-45235635D01*
X-635395Y-46570000D01*
X-994605Y-46570000D01*
X-2328970Y-45235635D01*
X-2647739Y-45395418D01*
X-2957723Y-46186187D01*
X-21191089Y-46186187D01*
X-21167560Y-46070000D01*
X-21167560Y-44070000D01*
X-21211838Y-43834683D01*
X-21350910Y-43618559D01*
X-21517620Y-43504651D01*
X-21434032Y-43355750D01*
X-16950000Y-43355750D01*
X-16950000Y-44696310D01*
X-16853327Y-44929699D01*
X-16674698Y-45108327D01*
X-16441309Y-45205000D01*
X-15600750Y-45205000D01*
X-15442000Y-45046250D01*
X-15442000Y-43197000D01*
X-16791250Y-43197000D01*
X-16950000Y-43355750D01*
X-21434032Y-43355750D01*
X-21255856Y-43038355D01*
X-21224876Y-42910434D01*
X-21344223Y-42657000D01*
X-23188000Y-42657000D01*
X-23188000Y-42677000D01*
X-23442000Y-42677000D01*
X-23442000Y-42657000D01*
X-25285777Y-42657000D01*
X-25405124Y-42910434D01*
X-25374144Y-43038355D01*
X-25111505Y-43506211D01*
X-25266441Y-43605910D01*
X-25411431Y-43818110D01*
X-25462440Y-44070000D01*
X-26416000Y-44070000D01*
X-26416000Y-40239111D01*
X-26169695Y-40239326D01*
X-25485160Y-39956482D01*
X-25491827Y-39990000D01*
X-25367370Y-40615687D01*
X-25012947Y-41146120D01*
X-24820611Y-41274634D01*
X-25060922Y-41463683D01*
X-25374144Y-42021645D01*
X-25405124Y-42149566D01*
X-25285777Y-42403000D01*
X-23442000Y-42403000D01*
X-23442000Y-42383000D01*
X-23188000Y-42383000D01*
X-23188000Y-42403000D01*
X-21344223Y-42403000D01*
X-21224876Y-42149566D01*
X-21255856Y-42021645D01*
X-21569078Y-41463683D01*
X-21594492Y-41443690D01*
X-16950000Y-41443690D01*
X-16950000Y-42784250D01*
X-16791250Y-42943000D01*
X-15442000Y-42943000D01*
X-15442000Y-41093750D01*
X-15188000Y-41093750D01*
X-15188000Y-42943000D01*
X-15168000Y-42943000D01*
X-15168000Y-43197000D01*
X-15188000Y-43197000D01*
X-15188000Y-45046250D01*
X-15029250Y-45205000D01*
X-14188691Y-45205000D01*
X-13955302Y-45108327D01*
X-13776673Y-44929699D01*
X-13757677Y-44883838D01*
X-13400687Y-45122370D01*
X-12775000Y-45246827D01*
X-12149313Y-45122370D01*
X-12050028Y-45056030D01*
X-2149365Y-45056030D01*
X-815000Y-46390395D01*
X519365Y-45056030D01*
X359582Y-44737261D01*
X-431187Y-44427277D01*
X-1280387Y-44443503D01*
X-1989582Y-44737261D01*
X-2149365Y-45056030D01*
X-12050028Y-45056030D01*
X-11618880Y-44767947D01*
X-11264457Y-44237514D01*
X-11140000Y-43611827D01*
X-11140000Y-42528173D01*
X-11264457Y-41902486D01*
X-11477281Y-41583970D01*
X-2149365Y-41583970D01*
X-1989582Y-41902739D01*
X-1198813Y-42212723D01*
X-349613Y-42196497D01*
X359582Y-41902739D01*
X519365Y-41583970D01*
X-815000Y-40249605D01*
X-2149365Y-41583970D01*
X-11477281Y-41583970D01*
X-11618880Y-41372053D01*
X-12149313Y-41017630D01*
X-12775000Y-40893173D01*
X-13400687Y-41017630D01*
X-13757677Y-41256162D01*
X-13776673Y-41210301D01*
X-13955302Y-41031673D01*
X-14188691Y-40935000D01*
X-15029250Y-40935000D01*
X-15188000Y-41093750D01*
X-15442000Y-41093750D01*
X-15600750Y-40935000D01*
X-16441309Y-40935000D01*
X-16674698Y-41031673D01*
X-16853327Y-41210301D01*
X-16950000Y-41443690D01*
X-21594492Y-41443690D01*
X-21809389Y-41274634D01*
X-21617053Y-41146120D01*
X-21262630Y-40615687D01*
X-21138173Y-39990000D01*
X-21198605Y-39686187D01*
X-2957723Y-39686187D01*
X-2941497Y-40535387D01*
X-2647739Y-41244582D01*
X-2328970Y-41404365D01*
X-994605Y-40070000D01*
X-635395Y-40070000D01*
X698970Y-41404365D01*
X1017739Y-41244582D01*
X1312434Y-40492815D01*
X1549630Y-40492815D01*
X1873980Y-41277800D01*
X2474041Y-41878909D01*
X3258459Y-42204628D01*
X4107815Y-42205370D01*
X4892800Y-41881020D01*
X5493909Y-41280959D01*
X5819628Y-40496541D01*
X5820370Y-39647185D01*
X5496020Y-38862200D01*
X4895959Y-38261091D01*
X4111541Y-37935372D01*
X3262185Y-37934630D01*
X2477200Y-38258980D01*
X1876091Y-38859041D01*
X1550372Y-39643459D01*
X1549630Y-40492815D01*
X1312434Y-40492815D01*
X1327723Y-40453813D01*
X1311497Y-39604613D01*
X1017739Y-38895418D01*
X698970Y-38735635D01*
X-635395Y-40070000D01*
X-994605Y-40070000D01*
X-2328970Y-38735635D01*
X-2647739Y-38895418D01*
X-2957723Y-39686187D01*
X-21198605Y-39686187D01*
X-21262630Y-39364313D01*
X-21617053Y-38833880D01*
X-21787487Y-38720000D01*
X-21617053Y-38606120D01*
X-21583585Y-38556030D01*
X-2149365Y-38556030D01*
X-815000Y-39890395D01*
X519365Y-38556030D01*
X359582Y-38237261D01*
X-431187Y-37927277D01*
X-1280387Y-37943503D01*
X-1989582Y-38237261D01*
X-2149365Y-38556030D01*
X-21583585Y-38556030D01*
X-21262630Y-38075687D01*
X-21138173Y-37450000D01*
X-21262630Y-36824313D01*
X-21617053Y-36293880D01*
X-21787487Y-36180000D01*
X-21617053Y-36066120D01*
X-21262630Y-35535687D01*
X-21138173Y-34910000D01*
X-21262630Y-34284313D01*
X-21617053Y-33753880D01*
X-21787487Y-33640000D01*
X-21617053Y-33526120D01*
X-21262630Y-32995687D01*
X-21138173Y-32370000D01*
X-21262630Y-31744313D01*
X-21617053Y-31213880D01*
X-21787487Y-31100000D01*
X-21617053Y-30986120D01*
X-21262630Y-30455687D01*
X-21138173Y-29830000D01*
X-21262630Y-29204313D01*
X-21617053Y-28673880D01*
X-21787487Y-28560000D01*
X-21617053Y-28446120D01*
X-21262630Y-27915687D01*
X-21138173Y-27290000D01*
X-21262630Y-26664313D01*
X-21617053Y-26133880D01*
X-21787487Y-26020000D01*
X-21617053Y-25906120D01*
X-21262630Y-25375687D01*
X-21138173Y-24750000D01*
X-21262630Y-24124313D01*
X-21617053Y-23593880D01*
X-21787487Y-23480000D01*
X-21617053Y-23366120D01*
X-21262630Y-22835687D01*
X-21138173Y-22210000D01*
X-21262630Y-21584313D01*
X-21617053Y-21053880D01*
X-21787487Y-20940000D01*
X-21617053Y-20826120D01*
X-21262630Y-20295687D01*
X-21138173Y-19670000D01*
X-21262630Y-19044313D01*
X-21617053Y-18513880D01*
X-21787487Y-18400000D01*
X-21617053Y-18286120D01*
X-21262630Y-17755687D01*
X-21138173Y-17130000D01*
X-21262630Y-16504313D01*
X-21617053Y-15973880D01*
X-21787487Y-15860000D01*
X-21617053Y-15746120D01*
X-21262630Y-15215687D01*
X-21138173Y-14590000D01*
X-21262630Y-13964313D01*
X-21617053Y-13433880D01*
X-21809389Y-13305366D01*
X-21569078Y-13116317D01*
X-21255856Y-12558355D01*
X-21224876Y-12430434D01*
X-21344223Y-12177000D01*
X-23188000Y-12177000D01*
X-23188000Y-12197000D01*
X-23442000Y-12197000D01*
X-23442000Y-12177000D01*
X-25285777Y-12177000D01*
X-25405124Y-12430434D01*
X-25374144Y-12558355D01*
X-25060922Y-13116317D01*
X-24820611Y-13305366D01*
X-25012947Y-13433880D01*
X-25367370Y-13964313D01*
X-25491827Y-14590000D01*
X-25367370Y-15215687D01*
X-25012947Y-15746120D01*
X-24842513Y-15860000D01*
X-25012947Y-15973880D01*
X-25367370Y-16504313D01*
X-25491827Y-17130000D01*
X-25367370Y-17755687D01*
X-25012947Y-18286120D01*
X-24842513Y-18400000D01*
X-25012947Y-18513880D01*
X-25367370Y-19044313D01*
X-25491827Y-19670000D01*
X-25367370Y-20295687D01*
X-25012947Y-20826120D01*
X-24842513Y-20940000D01*
X-25012947Y-21053880D01*
X-25367370Y-21584313D01*
X-25491827Y-22210000D01*
X-25367370Y-22835687D01*
X-25012947Y-23366120D01*
X-24842513Y-23480000D01*
X-25012947Y-23593880D01*
X-25367370Y-24124313D01*
X-25491827Y-24750000D01*
X-25367370Y-25375687D01*
X-25012947Y-25906120D01*
X-24842513Y-26020000D01*
X-25012947Y-26133880D01*
X-25367370Y-26664313D01*
X-25491827Y-27290000D01*
X-25367370Y-27915687D01*
X-25012947Y-28446120D01*
X-24842513Y-28560000D01*
X-25012947Y-28673880D01*
X-25165953Y-28902871D01*
X-25165674Y-28582695D01*
X-25452043Y-27889628D01*
X-25981839Y-27358907D01*
X-26674405Y-27071328D01*
X-27424305Y-27070674D01*
X-28117372Y-27357043D01*
X-28648093Y-27886839D01*
X-28828373Y-28321000D01*
X-30099000Y-28321000D01*
X-30439206Y-28388671D01*
X-30724659Y-28579405D01*
X-30727618Y-28581382D01*
X-31743618Y-29597382D01*
X-31936329Y-29885794D01*
X-32004000Y-30226000D01*
X-32004000Y-31669401D01*
X-32094308Y-31215391D01*
X-32397140Y-30762172D01*
X-32819439Y-30480000D01*
X-32397140Y-30197828D01*
X-32094308Y-29744609D01*
X-31987968Y-29210000D01*
X-32094308Y-28675391D01*
X-32397140Y-28222172D01*
X-32819439Y-27940000D01*
X-32397140Y-27657828D01*
X-32094308Y-27204609D01*
X-31987968Y-26670000D01*
X-32094308Y-26135391D01*
X-32397140Y-25682172D01*
X-32819439Y-25400000D01*
X-32397140Y-25117828D01*
X-32094308Y-24664609D01*
X-31987968Y-24130000D01*
X-32094308Y-23595391D01*
X-32397140Y-23142172D01*
X-32819439Y-22860000D01*
X-32397140Y-22577828D01*
X-32094308Y-22124609D01*
X-31987968Y-21590000D01*
X-32094308Y-21055391D01*
X-32397140Y-20602172D01*
X-32819439Y-20320000D01*
X-32397140Y-20037828D01*
X-32094308Y-19584609D01*
X-31987968Y-19050000D01*
X-32094308Y-18515391D01*
X-32397140Y-18062172D01*
X-32819439Y-17780000D01*
X-32397140Y-17497828D01*
X-32094308Y-17044609D01*
X-31987968Y-16510000D01*
X-32094308Y-15975391D01*
X-32397140Y-15522172D01*
X-32819439Y-15240000D01*
X-32397140Y-14957828D01*
X-32094308Y-14504609D01*
X-31987968Y-13970000D01*
X-32094308Y-13435391D01*
X-32397140Y-12982172D01*
X-32819439Y-12700000D01*
X-32397140Y-12417828D01*
X-32094308Y-11964609D01*
X-31987968Y-11430000D01*
X-32094308Y-10895391D01*
X-32397140Y-10442172D01*
X-32819439Y-10160000D01*
X-32397140Y-9877828D01*
X-32094308Y-9424609D01*
X-31987968Y-8890000D01*
X-32094308Y-8355391D01*
X-32397140Y-7902172D01*
X-32819439Y-7620000D01*
X-32397140Y-7337828D01*
X-32094308Y-6884609D01*
X-31987968Y-6350000D01*
X-32094308Y-5815391D01*
X-32397140Y-5362172D01*
X-32850359Y-5059340D01*
X-33384968Y-4953000D01*
X-33925032Y-4953000D01*
X-34459641Y-5059340D01*
X-34684093Y-5209314D01*
X-34730910Y-5136559D01*
X-34943110Y-4991569D01*
X-35195000Y-4940560D01*
X-37195000Y-4940560D01*
X-37430317Y-4984838D01*
X-37646441Y-5123910D01*
X-37791431Y-5336110D01*
X-37842440Y-5588000D01*
X-37842440Y-7112000D01*
X-37798162Y-7347317D01*
X-37659090Y-7563441D01*
X-37446890Y-7708431D01*
X-37220386Y-7754299D01*
X-37502020Y-7976108D01*
X-37770377Y-8454770D01*
X-37787220Y-8546930D01*
X-37664720Y-8763000D01*
X-36322000Y-8763000D01*
X-36322000Y-8743000D01*
X-36068000Y-8743000D01*
X-36068000Y-8763000D01*
X-36048000Y-8763000D01*
X-36048000Y-9017000D01*
X-36068000Y-9017000D01*
X-36068000Y-10133277D01*
X-36030874Y-10160000D01*
X-36068000Y-10186723D01*
X-36068000Y-11303000D01*
X-36048000Y-11303000D01*
X-36048000Y-11557000D01*
X-36068000Y-11557000D01*
X-36068000Y-12673277D01*
X-36030874Y-12700000D01*
X-36068000Y-12726723D01*
X-36068000Y-13843000D01*
X-36048000Y-13843000D01*
X-36048000Y-14097000D01*
X-36068000Y-14097000D01*
X-36068000Y-14117000D01*
X-36322000Y-14117000D01*
X-36322000Y-14097000D01*
X-37664720Y-14097000D01*
X-37787220Y-14313070D01*
X-37770377Y-14405230D01*
X-37502020Y-14883892D01*
X-37070914Y-15223422D01*
X-37025067Y-15236329D01*
X-37452860Y-15522172D01*
X-37755692Y-15975391D01*
X-37862032Y-16510000D01*
X-42470000Y-16510000D01*
X-42470000Y-11773070D01*
X-37787220Y-11773070D01*
X-37770377Y-11865230D01*
X-37502020Y-12343892D01*
X-37070914Y-12683422D01*
X-37012028Y-12700000D01*
X-37070914Y-12716578D01*
X-37502020Y-13056108D01*
X-37770377Y-13534770D01*
X-37787220Y-13626930D01*
X-37664720Y-13843000D01*
X-36322000Y-13843000D01*
X-36322000Y-12726723D01*
X-36359126Y-12700000D01*
X-36322000Y-12673277D01*
X-36322000Y-11557000D01*
X-37664720Y-11557000D01*
X-37787220Y-11773070D01*
X-42470000Y-11773070D01*
X-42470000Y-9233070D01*
X-37787220Y-9233070D01*
X-37770377Y-9325230D01*
X-37502020Y-9803892D01*
X-37070914Y-10143422D01*
X-37012028Y-10160000D01*
X-37070914Y-10176578D01*
X-37502020Y-10516108D01*
X-37770377Y-10994770D01*
X-37787220Y-11086930D01*
X-37664720Y-11303000D01*
X-36322000Y-11303000D01*
X-36322000Y-10186723D01*
X-36359126Y-10160000D01*
X-36322000Y-10133277D01*
X-36322000Y-9017000D01*
X-37664720Y-9017000D01*
X-37787220Y-9233070D01*
X-42470000Y-9233070D01*
X-42470000Y-710000D01*
X-24977208Y-710000D01*
X-25012947Y-733880D01*
X-25012947Y-733880D01*
G37*
X-25012947Y-733880D02*
X-25367370Y-1264313D01*
X-25491827Y-1890000D01*
X-25367370Y-2515687D01*
X-25012947Y-3046120D01*
X-24842513Y-3160000D01*
X-25012947Y-3273880D01*
X-25367370Y-3804313D01*
X-25491827Y-4430000D01*
X-25367370Y-5055687D01*
X-25012947Y-5586120D01*
X-24842513Y-5700000D01*
X-25012947Y-5813880D01*
X-25367370Y-6344313D01*
X-25491827Y-6970000D01*
X-25367370Y-7595687D01*
X-25012947Y-8126120D01*
X-24842513Y-8240000D01*
X-25012947Y-8353880D01*
X-25367370Y-8884313D01*
X-25491827Y-9510000D01*
X-25367370Y-10135687D01*
X-25012947Y-10666120D01*
X-24820611Y-10794634D01*
X-25060922Y-10983683D01*
X-25374144Y-11541645D01*
X-25405124Y-11669566D01*
X-25285777Y-11923000D01*
X-23442000Y-11923000D01*
X-23442000Y-11903000D01*
X-23188000Y-11903000D01*
X-23188000Y-11923000D01*
X-21344223Y-11923000D01*
X-21224876Y-11669566D01*
X-21255856Y-11541645D01*
X-21569078Y-10983683D01*
X-21809389Y-10794634D01*
X-21617053Y-10666120D01*
X-21262630Y-10135687D01*
X-21138173Y-9510000D01*
X-21262630Y-8884313D01*
X-21617053Y-8353880D01*
X-21631412Y-8344285D01*
X-15700240Y-8344285D01*
X-15489831Y-8853515D01*
X-15273687Y-9070036D01*
X-15488461Y-9284436D01*
X-15699759Y-9793298D01*
X-15700240Y-10344285D01*
X-15489831Y-10853515D01*
X-15273687Y-11070036D01*
X-15488461Y-11284436D01*
X-15699759Y-11793298D01*
X-15700240Y-12344285D01*
X-15489831Y-12853515D01*
X-15273687Y-13070036D01*
X-15488461Y-13284436D01*
X-15699759Y-13793298D01*
X-15700240Y-14344285D01*
X-15489831Y-14853515D01*
X-15273687Y-15070036D01*
X-15488461Y-15284436D01*
X-15699759Y-15793298D01*
X-15700240Y-16344285D01*
X-15489831Y-16853515D01*
X-15273687Y-17070036D01*
X-15488461Y-17284436D01*
X-15699759Y-17793298D01*
X-15700240Y-18344285D01*
X-15489831Y-18853515D01*
X-15273687Y-19070036D01*
X-15488461Y-19284436D01*
X-15699759Y-19793298D01*
X-15700240Y-20344285D01*
X-15489831Y-20853515D01*
X-15273687Y-21070036D01*
X-15488461Y-21284436D01*
X-15699759Y-21793298D01*
X-15700240Y-22344285D01*
X-15489831Y-22853515D01*
X-15100564Y-23243461D01*
X-14591702Y-23454759D01*
X-14040715Y-23455240D01*
X-13531485Y-23244831D01*
X-13314964Y-23028687D01*
X-13100564Y-23243461D01*
X-12591702Y-23454759D01*
X-12040715Y-23455240D01*
X-11531485Y-23244831D01*
X-11141539Y-22855564D01*
X-10930241Y-22346702D01*
X-10929760Y-21795715D01*
X-11140169Y-21286485D01*
X-11356313Y-21069964D01*
X-11141539Y-20855564D01*
X-10930241Y-20346702D01*
X-10929760Y-19795715D01*
X-11140169Y-19286485D01*
X-11356313Y-19069964D01*
X-11141539Y-18855564D01*
X-10930241Y-18346702D01*
X-10929760Y-17795715D01*
X-11140169Y-17286485D01*
X-11529436Y-16896539D01*
X-11766506Y-16798099D01*
X-12315000Y-16249605D01*
X-12863428Y-16798033D01*
X-13098515Y-16895169D01*
X-13315036Y-17111313D01*
X-13356313Y-17069964D01*
X-13141539Y-16855564D01*
X-13043099Y-16618494D01*
X-12494605Y-16070000D01*
X-12135395Y-16070000D01*
X-11343483Y-16861912D01*
X-11102540Y-16793923D01*
X-10917799Y-16274829D01*
X-10945770Y-15724552D01*
X-11102540Y-15346077D01*
X-11343483Y-15278088D01*
X-12135395Y-16070000D01*
X-12494605Y-16070000D01*
X-13043033Y-15521572D01*
X-13140169Y-15286485D01*
X-13356313Y-15069964D01*
X-13314964Y-15028687D01*
X-13100564Y-15243461D01*
X-12863494Y-15341901D01*
X-12315000Y-15890395D01*
X-11766572Y-15341967D01*
X-11531485Y-15244831D01*
X-11141539Y-14855564D01*
X-10930241Y-14346702D01*
X-10929760Y-13795715D01*
X-11140169Y-13286485D01*
X-11356313Y-13069964D01*
X-11141539Y-12855564D01*
X-10930241Y-12346702D01*
X-10929760Y-11795715D01*
X-11140169Y-11286485D01*
X-11356313Y-11069964D01*
X-11141539Y-10855564D01*
X-10930241Y-10346702D01*
X-10929760Y-9795715D01*
X-11140169Y-9286485D01*
X-11356313Y-9069964D01*
X-11141539Y-8855564D01*
X-10930241Y-8346702D01*
X-10929760Y-7795715D01*
X-11140169Y-7286485D01*
X-11356313Y-7069964D01*
X-11141539Y-6855564D01*
X-10930241Y-6346702D01*
X-10930239Y-6344285D01*
X4299760Y-6344285D01*
X4510169Y-6853515D01*
X4726313Y-7070036D01*
X4511539Y-7284436D01*
X4300241Y-7793298D01*
X4299760Y-8344285D01*
X4510169Y-8853515D01*
X4726313Y-9070036D01*
X4511539Y-9284436D01*
X4300241Y-9793298D01*
X4299760Y-10344285D01*
X4510169Y-10853515D01*
X4726313Y-11070036D01*
X4511539Y-11284436D01*
X4300241Y-11793298D01*
X4299760Y-12344285D01*
X4510169Y-12853515D01*
X4726313Y-13070036D01*
X4511539Y-13284436D01*
X4300241Y-13793298D01*
X4299760Y-14344285D01*
X4510169Y-14853515D01*
X4726313Y-15070036D01*
X4511539Y-15284436D01*
X4300241Y-15793298D01*
X4299760Y-16344285D01*
X4510169Y-16853515D01*
X4726313Y-17070036D01*
X4511539Y-17284436D01*
X4300241Y-17793298D01*
X4299760Y-18344285D01*
X4510169Y-18853515D01*
X4726313Y-19070036D01*
X4511539Y-19284436D01*
X4300241Y-19793298D01*
X4299760Y-20344285D01*
X4510169Y-20853515D01*
X4726313Y-21070036D01*
X4511539Y-21284436D01*
X4300241Y-21793298D01*
X4299760Y-22344285D01*
X4510169Y-22853515D01*
X4899436Y-23243461D01*
X5408298Y-23454759D01*
X5959285Y-23455240D01*
X6468515Y-23244831D01*
X6685036Y-23028687D01*
X6899436Y-23243461D01*
X7408298Y-23454759D01*
X7959285Y-23455240D01*
X8468515Y-23244831D01*
X8858461Y-22855564D01*
X9069759Y-22346702D01*
X9070240Y-21795715D01*
X8859831Y-21286485D01*
X8643687Y-21069964D01*
X8858461Y-20855564D01*
X9069759Y-20346702D01*
X9070240Y-19795715D01*
X8859831Y-19286485D01*
X8643687Y-19069964D01*
X8858461Y-18855564D01*
X9069759Y-18346702D01*
X9070240Y-17795715D01*
X8859831Y-17286485D01*
X8643687Y-17069964D01*
X8858461Y-16855564D01*
X9069759Y-16346702D01*
X9070240Y-15795715D01*
X8859831Y-15286485D01*
X8643687Y-15069964D01*
X8858461Y-14855564D01*
X9069759Y-14346702D01*
X9070240Y-13795715D01*
X8859831Y-13286485D01*
X8643687Y-13069964D01*
X8858461Y-12855564D01*
X9069759Y-12346702D01*
X9070240Y-11795715D01*
X8859831Y-11286485D01*
X8643687Y-11069964D01*
X8858461Y-10855564D01*
X9069759Y-10346702D01*
X9070240Y-9795715D01*
X8859831Y-9286485D01*
X8643687Y-9069964D01*
X8858461Y-8855564D01*
X9069759Y-8346702D01*
X9070240Y-7795715D01*
X8859831Y-7286485D01*
X8643687Y-7069964D01*
X8858461Y-6855564D01*
X9069759Y-6346702D01*
X9070240Y-5795715D01*
X8859831Y-5286485D01*
X8470564Y-4896539D01*
X7961702Y-4685241D01*
X7410715Y-4684760D01*
X6901485Y-4895169D01*
X6684964Y-5111313D01*
X6470564Y-4896539D01*
X5961702Y-4685241D01*
X5410715Y-4684760D01*
X4901485Y-4895169D01*
X4511539Y-5284436D01*
X4300241Y-5793298D01*
X4299760Y-6344285D01*
X-10930239Y-6344285D01*
X-10929760Y-5795715D01*
X-11140169Y-5286485D01*
X-11529436Y-4896539D01*
X-12038298Y-4685241D01*
X-12589285Y-4684760D01*
X-13098515Y-4895169D01*
X-13488461Y-5284436D01*
X-13586901Y-5521506D01*
X-14135395Y-6070000D01*
X-13586967Y-6618428D01*
X-13489831Y-6853515D01*
X-13273687Y-7070036D01*
X-13315036Y-7111313D01*
X-13529436Y-6896539D01*
X-13766506Y-6798099D01*
X-14315000Y-6249605D01*
X-14863428Y-6798033D01*
X-15098515Y-6895169D01*
X-15488461Y-7284436D01*
X-15699759Y-7793298D01*
X-15700240Y-8344285D01*
X-21631412Y-8344285D01*
X-21787487Y-8240000D01*
X-21617053Y-8126120D01*
X-21262630Y-7595687D01*
X-21138173Y-6970000D01*
X-21262630Y-6344313D01*
X-21582781Y-5865171D01*
X-15712201Y-5865171D01*
X-15684230Y-6415448D01*
X-15527460Y-6793923D01*
X-15286517Y-6861912D01*
X-14494605Y-6070000D01*
X-15286517Y-5278088D01*
X-15527460Y-5346077D01*
X-15712201Y-5865171D01*
X-21582781Y-5865171D01*
X-21617053Y-5813880D01*
X-21787487Y-5700000D01*
X-21617053Y-5586120D01*
X-21291226Y-5098483D01*
X-15106912Y-5098483D01*
X-14315000Y-5890395D01*
X-13523088Y-5098483D01*
X-13591077Y-4857540D01*
X-14110171Y-4672799D01*
X-14660448Y-4700770D01*
X-15038923Y-4857540D01*
X-15106912Y-5098483D01*
X-21291226Y-5098483D01*
X-21262630Y-5055687D01*
X-21138173Y-4430000D01*
X-21262630Y-3804313D01*
X-21617053Y-3273880D01*
X-21787487Y-3160000D01*
X-21617053Y-3046120D01*
X-21262630Y-2515687D01*
X-21138173Y-1890000D01*
X-21262630Y-1264313D01*
X-21617053Y-733880D01*
X-21652792Y-710000D01*
X14662437Y-710000D01*
X14588569Y-818110D01*
X14537560Y-1070000D01*
X14537560Y-3070000D01*
X14581838Y-3305317D01*
X14720910Y-3521441D01*
X14872639Y-3625113D01*
X14632630Y-3984313D01*
X14508173Y-4610000D01*
X14632630Y-5235687D01*
X14987053Y-5766120D01*
X15157487Y-5880000D01*
X14987053Y-5993880D01*
X14632630Y-6524313D01*
X14508173Y-7150000D01*
X14632630Y-7775687D01*
X14987053Y-8306120D01*
X15157487Y-8420000D01*
X14987053Y-8533880D01*
X14632630Y-9064313D01*
X14508173Y-9690000D01*
X14632630Y-10315687D01*
X14987053Y-10846120D01*
X15157487Y-10960000D01*
X14987053Y-11073880D01*
X14632630Y-11604313D01*
X14508173Y-12230000D01*
X14632630Y-12855687D01*
X14987053Y-13386120D01*
X15157487Y-13500000D01*
X14987053Y-13613880D01*
X14632630Y-14144313D01*
X14508173Y-14770000D01*
X14632630Y-15395687D01*
X14987053Y-15926120D01*
X15157487Y-16040000D01*
X14987053Y-16153880D01*
X14632630Y-16684313D01*
X14508173Y-17310000D01*
X14632630Y-17935687D01*
X14987053Y-18466120D01*
X15157487Y-18580000D01*
X14987053Y-18693880D01*
X14632630Y-19224313D01*
X14508173Y-19850000D01*
X14632630Y-20475687D01*
X14987053Y-21006120D01*
X15157487Y-21120000D01*
X14987053Y-21233880D01*
X14632630Y-21764313D01*
X14508173Y-22390000D01*
X14632630Y-23015687D01*
X14987053Y-23546120D01*
X15157487Y-23660000D01*
X14987053Y-23773880D01*
X14632630Y-24304313D01*
X14508173Y-24930000D01*
X14632630Y-25555687D01*
X14987053Y-26086120D01*
X15157487Y-26200000D01*
X14987053Y-26313880D01*
X14632630Y-26844313D01*
X14508173Y-27470000D01*
X14632630Y-28095687D01*
X14987053Y-28626120D01*
X15157487Y-28740000D01*
X14987053Y-28853880D01*
X14632630Y-29384313D01*
X14508173Y-30010000D01*
X14632630Y-30635687D01*
X14987053Y-31166120D01*
X15157487Y-31280000D01*
X14987053Y-31393880D01*
X14632630Y-31924313D01*
X14508173Y-32550000D01*
X14632630Y-33175687D01*
X14987053Y-33706120D01*
X15157487Y-33820000D01*
X14987053Y-33933880D01*
X14632630Y-34464313D01*
X14508173Y-35090000D01*
X14632630Y-35715687D01*
X14987053Y-36246120D01*
X15157487Y-36360000D01*
X14987053Y-36473880D01*
X14632630Y-37004313D01*
X14508173Y-37630000D01*
X14632630Y-38255687D01*
X14987053Y-38786120D01*
X15157487Y-38900000D01*
X14987053Y-39013880D01*
X14632630Y-39544313D01*
X14508173Y-40170000D01*
X14632630Y-40795687D01*
X14987053Y-41326120D01*
X15157487Y-41440000D01*
X14987053Y-41553880D01*
X14632630Y-42084313D01*
X14508173Y-42710000D01*
X14632630Y-43335687D01*
X14987053Y-43866120D01*
X15157487Y-43980000D01*
X14987053Y-44093880D01*
X14632630Y-44624313D01*
X14508173Y-45250000D01*
X14632630Y-45875687D01*
X14987053Y-46406120D01*
X15517486Y-46760543D01*
X16143173Y-46885000D01*
X17226827Y-46885000D01*
X17852514Y-46760543D01*
X18382947Y-46406120D01*
X18737370Y-45875687D01*
X18861827Y-45250000D01*
X18737370Y-44624313D01*
X18382947Y-44093880D01*
X18212513Y-43980000D01*
X18382947Y-43866120D01*
X18655643Y-43458000D01*
X20196560Y-43458000D01*
X20196560Y-46458000D01*
X20240838Y-46693317D01*
X20379910Y-46909441D01*
X20592110Y-47054431D01*
X20844000Y-47105440D01*
X22844000Y-47105440D01*
X23079317Y-47061162D01*
X23295441Y-46922090D01*
X23399113Y-46770361D01*
X23758313Y-47010370D01*
X24384000Y-47134827D01*
X25009687Y-47010370D01*
X25540120Y-46655947D01*
X25894543Y-46125514D01*
X26019000Y-45499827D01*
X26019000Y-44416173D01*
X25894543Y-43790486D01*
X25540120Y-43260053D01*
X25009687Y-42905630D01*
X24384000Y-42781173D01*
X23758313Y-42905630D01*
X23398045Y-43146353D01*
X23308090Y-43006559D01*
X23095890Y-42861569D01*
X22844000Y-42810560D01*
X20844000Y-42810560D01*
X20608683Y-42854838D01*
X20392559Y-42993910D01*
X20247569Y-43206110D01*
X20196560Y-43458000D01*
X18655643Y-43458000D01*
X18737370Y-43335687D01*
X18861827Y-42710000D01*
X18737370Y-42084313D01*
X18382947Y-41553880D01*
X18212513Y-41440000D01*
X18382947Y-41326120D01*
X18737370Y-40795687D01*
X18861827Y-40170000D01*
X18737370Y-39544313D01*
X18382947Y-39013880D01*
X18212513Y-38900000D01*
X18382947Y-38786120D01*
X18485926Y-38632000D01*
X20196560Y-38632000D01*
X20196560Y-41632000D01*
X20240838Y-41867317D01*
X20379910Y-42083441D01*
X20592110Y-42228431D01*
X20844000Y-42279440D01*
X22844000Y-42279440D01*
X23079317Y-42235162D01*
X23295441Y-42096090D01*
X23399113Y-41944361D01*
X23758313Y-42184370D01*
X24384000Y-42308827D01*
X25009687Y-42184370D01*
X25540120Y-41829947D01*
X25894543Y-41299514D01*
X26019000Y-40673827D01*
X26019000Y-39590173D01*
X25894543Y-38964486D01*
X25540120Y-38434053D01*
X25009687Y-38079630D01*
X24384000Y-37955173D01*
X23758313Y-38079630D01*
X23398045Y-38320353D01*
X23308090Y-38180559D01*
X23095890Y-38035569D01*
X22844000Y-37984560D01*
X20844000Y-37984560D01*
X20608683Y-38028838D01*
X20392559Y-38167910D01*
X20247569Y-38380110D01*
X20196560Y-38632000D01*
X18485926Y-38632000D01*
X18737370Y-38255687D01*
X18861827Y-37630000D01*
X18737370Y-37004313D01*
X18382947Y-36473880D01*
X18212513Y-36360000D01*
X18382947Y-36246120D01*
X18737370Y-35715687D01*
X18861827Y-35090000D01*
X18737370Y-34464313D01*
X18382947Y-33933880D01*
X18212513Y-33820000D01*
X18382947Y-33706120D01*
X18485926Y-33552000D01*
X20196560Y-33552000D01*
X20196560Y-36552000D01*
X20240838Y-36787317D01*
X20379910Y-37003441D01*
X20592110Y-37148431D01*
X20844000Y-37199440D01*
X22844000Y-37199440D01*
X23079317Y-37155162D01*
X23295441Y-37016090D01*
X23399113Y-36864361D01*
X23758313Y-37104370D01*
X24384000Y-37228827D01*
X25009687Y-37104370D01*
X25540120Y-36749947D01*
X25894543Y-36219514D01*
X26019000Y-35593827D01*
X26019000Y-35425305D01*
X26562674Y-35425305D01*
X26849043Y-36118372D01*
X27378839Y-36649093D01*
X28071405Y-36936672D01*
X28821305Y-36937326D01*
X29514372Y-36650957D01*
X30045093Y-36121161D01*
X30332672Y-35428595D01*
X30333326Y-34678695D01*
X30258832Y-34498404D01*
X32118236Y-32639000D01*
X33601105Y-32639000D01*
X33667140Y-32737828D01*
X34089439Y-33020000D01*
X33667140Y-33302172D01*
X33601105Y-33401000D01*
X32512000Y-33401000D01*
X32171794Y-33468671D01*
X31973611Y-33601093D01*
X31883382Y-33661382D01*
X30613382Y-34931382D01*
X30420671Y-35219794D01*
X30353000Y-35560000D01*
X30353000Y-37223764D01*
X29255838Y-38320926D01*
X29078595Y-38247328D01*
X28328695Y-38246674D01*
X27635628Y-38533043D01*
X27104907Y-39062839D01*
X26817328Y-39755405D01*
X26816674Y-40505305D01*
X27103043Y-41198372D01*
X27632839Y-41729093D01*
X28325405Y-42016672D01*
X29075305Y-42017326D01*
X29768372Y-41730957D01*
X30299093Y-41201161D01*
X30586672Y-40508595D01*
X30587326Y-39758695D01*
X30512832Y-39578404D01*
X31623000Y-38468236D01*
X31623000Y-41287764D01*
X29509838Y-43400926D01*
X29332595Y-43327328D01*
X28582695Y-43326674D01*
X27889628Y-43613043D01*
X27358907Y-44142839D01*
X27071328Y-44835405D01*
X27070674Y-45585305D01*
X27357043Y-46278372D01*
X27886839Y-46809093D01*
X28579405Y-47096672D01*
X29329305Y-47097326D01*
X30022372Y-46810957D01*
X30553093Y-46281161D01*
X30840672Y-45588595D01*
X30841326Y-44838695D01*
X30766832Y-44658404D01*
X33140618Y-42284618D01*
X33288470Y-42063343D01*
X33364308Y-42444609D01*
X33667140Y-42897828D01*
X34089439Y-43180000D01*
X33667140Y-43462172D01*
X33364308Y-43915391D01*
X33257968Y-44450000D01*
X33364308Y-44984609D01*
X33667140Y-45437828D01*
X34089439Y-45720000D01*
X33667140Y-46002172D01*
X33364308Y-46455391D01*
X33257968Y-46990000D01*
X33364308Y-47524609D01*
X33667140Y-47977828D01*
X34089439Y-48260000D01*
X33667140Y-48542172D01*
X33364308Y-48995391D01*
X33257968Y-49530000D01*
X33364308Y-50064609D01*
X33667140Y-50517828D01*
X34089439Y-50800000D01*
X33667140Y-51082172D01*
X33364308Y-51535391D01*
X33257968Y-52070000D01*
X33364308Y-52604609D01*
X33667140Y-53057828D01*
X34089439Y-53340000D01*
X33667140Y-53622172D01*
X33364308Y-54075391D01*
X33257968Y-54610000D01*
X33364308Y-55144609D01*
X33667140Y-55597828D01*
X34120359Y-55900660D01*
X34654968Y-56007000D01*
X35195032Y-56007000D01*
X35729641Y-55900660D01*
X36182860Y-55597828D01*
X36206650Y-55562224D01*
X36589086Y-55863422D01*
X37117308Y-56012130D01*
X37338000Y-55853277D01*
X37338000Y-54737000D01*
X37592000Y-54737000D01*
X37592000Y-55853277D01*
X37812692Y-56012130D01*
X38340914Y-55863422D01*
X38772020Y-55523892D01*
X39040377Y-55045230D01*
X39057220Y-54953070D01*
X38934720Y-54737000D01*
X37592000Y-54737000D01*
X37338000Y-54737000D01*
X37318000Y-54737000D01*
X37318000Y-54483000D01*
X37338000Y-54483000D01*
X37338000Y-53366723D01*
X37300874Y-53340000D01*
X37338000Y-53313277D01*
X37338000Y-52197000D01*
X37592000Y-52197000D01*
X37592000Y-53313277D01*
X37629126Y-53340000D01*
X37592000Y-53366723D01*
X37592000Y-54483000D01*
X38934720Y-54483000D01*
X39057220Y-54266930D01*
X39040377Y-54174770D01*
X38772020Y-53696108D01*
X38340914Y-53356578D01*
X38282028Y-53340000D01*
X38340914Y-53323422D01*
X38772020Y-52983892D01*
X39040377Y-52505230D01*
X39057220Y-52413070D01*
X38934720Y-52197000D01*
X37592000Y-52197000D01*
X37338000Y-52197000D01*
X37318000Y-52197000D01*
X37318000Y-51943000D01*
X37338000Y-51943000D01*
X37338000Y-51923000D01*
X37592000Y-51923000D01*
X37592000Y-51943000D01*
X38934720Y-51943000D01*
X39057220Y-51726930D01*
X39040377Y-51634770D01*
X38772020Y-51156108D01*
X38340914Y-50816578D01*
X38295067Y-50803671D01*
X38722860Y-50517828D01*
X39025692Y-50064609D01*
X39132032Y-49530000D01*
X39025692Y-48995391D01*
X38722860Y-48542172D01*
X38300561Y-48260000D01*
X38722860Y-47977828D01*
X39025692Y-47524609D01*
X39132032Y-46990000D01*
X39025692Y-46455391D01*
X38722860Y-46002172D01*
X38295067Y-45716329D01*
X38340914Y-45703422D01*
X38772020Y-45363892D01*
X39040377Y-44885230D01*
X39057220Y-44793070D01*
X38934720Y-44577000D01*
X37592000Y-44577000D01*
X37592000Y-44597000D01*
X37338000Y-44597000D01*
X37338000Y-44577000D01*
X37318000Y-44577000D01*
X37318000Y-44323000D01*
X37338000Y-44323000D01*
X37338000Y-43206723D01*
X37300874Y-43180000D01*
X37338000Y-43153277D01*
X37338000Y-42037000D01*
X37592000Y-42037000D01*
X37592000Y-43153277D01*
X37629126Y-43180000D01*
X37592000Y-43206723D01*
X37592000Y-44323000D01*
X38934720Y-44323000D01*
X39057220Y-44106930D01*
X39040377Y-44014770D01*
X38772020Y-43536108D01*
X38340914Y-43196578D01*
X38282028Y-43180000D01*
X38340914Y-43163422D01*
X38772020Y-42823892D01*
X39040377Y-42345230D01*
X39057220Y-42253070D01*
X38934720Y-42037000D01*
X37592000Y-42037000D01*
X37338000Y-42037000D01*
X37318000Y-42037000D01*
X37318000Y-41783000D01*
X37338000Y-41783000D01*
X37338000Y-40666723D01*
X37300874Y-40640000D01*
X37338000Y-40613277D01*
X37338000Y-39497000D01*
X37592000Y-39497000D01*
X37592000Y-40613277D01*
X37629126Y-40640000D01*
X37592000Y-40666723D01*
X37592000Y-41783000D01*
X38934720Y-41783000D01*
X39057220Y-41566930D01*
X39040377Y-41474770D01*
X38772020Y-40996108D01*
X38340914Y-40656578D01*
X38282028Y-40640000D01*
X38340914Y-40623422D01*
X38772020Y-40283892D01*
X39040377Y-39805230D01*
X39057220Y-39713070D01*
X38934720Y-39497000D01*
X37592000Y-39497000D01*
X37338000Y-39497000D01*
X37318000Y-39497000D01*
X37318000Y-39243000D01*
X37338000Y-39243000D01*
X37338000Y-38126723D01*
X37300874Y-38100000D01*
X37338000Y-38073277D01*
X37338000Y-36957000D01*
X37592000Y-36957000D01*
X37592000Y-38073277D01*
X37629126Y-38100000D01*
X37592000Y-38126723D01*
X37592000Y-39243000D01*
X38934720Y-39243000D01*
X39057220Y-39026930D01*
X39040377Y-38934770D01*
X38772020Y-38456108D01*
X38340914Y-38116578D01*
X38282028Y-38100000D01*
X38340914Y-38083422D01*
X38772020Y-37743892D01*
X39040377Y-37265230D01*
X39057220Y-37173070D01*
X38934720Y-36957000D01*
X37592000Y-36957000D01*
X37338000Y-36957000D01*
X37318000Y-36957000D01*
X37318000Y-36703000D01*
X37338000Y-36703000D01*
X37338000Y-35586723D01*
X37300874Y-35560000D01*
X37338000Y-35533277D01*
X37338000Y-34417000D01*
X37592000Y-34417000D01*
X37592000Y-35533277D01*
X37629126Y-35560000D01*
X37592000Y-35586723D01*
X37592000Y-36703000D01*
X38934720Y-36703000D01*
X39057220Y-36486930D01*
X39040377Y-36394770D01*
X38772020Y-35916108D01*
X38340914Y-35576578D01*
X38282028Y-35560000D01*
X38340914Y-35543422D01*
X38772020Y-35203892D01*
X39040377Y-34725230D01*
X39057220Y-34633070D01*
X38934720Y-34417000D01*
X37592000Y-34417000D01*
X37338000Y-34417000D01*
X37318000Y-34417000D01*
X37318000Y-34163000D01*
X37338000Y-34163000D01*
X37338000Y-33046723D01*
X37300874Y-33020000D01*
X37338000Y-32993277D01*
X37338000Y-31877000D01*
X37592000Y-31877000D01*
X37592000Y-32993277D01*
X37629126Y-33020000D01*
X37592000Y-33046723D01*
X37592000Y-34163000D01*
X38934720Y-34163000D01*
X39057220Y-33946930D01*
X39040377Y-33854770D01*
X38772020Y-33376108D01*
X38340914Y-33036578D01*
X38282028Y-33020000D01*
X38340914Y-33003422D01*
X38772020Y-32663892D01*
X39040377Y-32185230D01*
X39057220Y-32093070D01*
X38934720Y-31877000D01*
X37592000Y-31877000D01*
X37338000Y-31877000D01*
X37318000Y-31877000D01*
X37318000Y-31623000D01*
X37338000Y-31623000D01*
X37338000Y-30506723D01*
X37300874Y-30480000D01*
X37338000Y-30453277D01*
X37338000Y-29337000D01*
X37592000Y-29337000D01*
X37592000Y-30453277D01*
X37629126Y-30480000D01*
X37592000Y-30506723D01*
X37592000Y-31623000D01*
X38934720Y-31623000D01*
X39057220Y-31406930D01*
X39040377Y-31314770D01*
X38772020Y-30836108D01*
X38340914Y-30496578D01*
X38282028Y-30480000D01*
X38340914Y-30463422D01*
X38772020Y-30123892D01*
X39040377Y-29645230D01*
X39057220Y-29553070D01*
X38934720Y-29337000D01*
X37592000Y-29337000D01*
X37338000Y-29337000D01*
X37318000Y-29337000D01*
X37318000Y-29083000D01*
X37338000Y-29083000D01*
X37338000Y-29063000D01*
X37592000Y-29063000D01*
X37592000Y-29083000D01*
X38934720Y-29083000D01*
X39057220Y-28866930D01*
X39040377Y-28774770D01*
X38772020Y-28296108D01*
X38340914Y-27956578D01*
X38295067Y-27943671D01*
X38722860Y-27657828D01*
X39025692Y-27204609D01*
X39132032Y-26670000D01*
X39025692Y-26135391D01*
X38722860Y-25682172D01*
X38300561Y-25400000D01*
X38722860Y-25117828D01*
X39025692Y-24664609D01*
X39132032Y-24130000D01*
X39025692Y-23595391D01*
X38722860Y-23142172D01*
X38300561Y-22860000D01*
X38722860Y-22577828D01*
X39025692Y-22124609D01*
X39132032Y-21590000D01*
X39025692Y-21055391D01*
X38722860Y-20602172D01*
X38300561Y-20320000D01*
X38722860Y-20037828D01*
X39025692Y-19584609D01*
X39132032Y-19050000D01*
X39025692Y-18515391D01*
X38722860Y-18062172D01*
X38300561Y-17780000D01*
X38722860Y-17497828D01*
X39025692Y-17044609D01*
X39132032Y-16510000D01*
X39025692Y-15975391D01*
X38722860Y-15522172D01*
X38300561Y-15240000D01*
X38722860Y-14957828D01*
X39025692Y-14504609D01*
X39132032Y-13970000D01*
X39025692Y-13435391D01*
X38722860Y-12982172D01*
X38300561Y-12700000D01*
X38722860Y-12417828D01*
X39025692Y-11964609D01*
X39132032Y-11430000D01*
X39025692Y-10895391D01*
X38722860Y-10442172D01*
X38295067Y-10156329D01*
X38340914Y-10143422D01*
X38772020Y-9803892D01*
X39040377Y-9325230D01*
X39057220Y-9233070D01*
X38934720Y-9017000D01*
X37592000Y-9017000D01*
X37592000Y-9037000D01*
X37338000Y-9037000D01*
X37338000Y-9017000D01*
X37318000Y-9017000D01*
X37318000Y-8763000D01*
X37338000Y-8763000D01*
X37338000Y-8743000D01*
X37592000Y-8743000D01*
X37592000Y-8763000D01*
X38934720Y-8763000D01*
X39057220Y-8546930D01*
X39040377Y-8454770D01*
X38772020Y-7976108D01*
X38340914Y-7636578D01*
X38295067Y-7623671D01*
X38722860Y-7337828D01*
X39025692Y-6884609D01*
X39132032Y-6350000D01*
X39025692Y-5815391D01*
X38722860Y-5362172D01*
X38269641Y-5059340D01*
X37735032Y-4953000D01*
X37194968Y-4953000D01*
X36660359Y-5059340D01*
X36435907Y-5209314D01*
X36389090Y-5136559D01*
X36176890Y-4991569D01*
X35925000Y-4940560D01*
X33925000Y-4940560D01*
X33689683Y-4984838D01*
X33473559Y-5123910D01*
X33328569Y-5336110D01*
X33277560Y-5588000D01*
X33277560Y-7112000D01*
X33321838Y-7347317D01*
X33460910Y-7563441D01*
X33673110Y-7708431D01*
X33891044Y-7752564D01*
X33667140Y-7902172D01*
X33364308Y-8355391D01*
X33257968Y-8890000D01*
X33364308Y-9424609D01*
X33667140Y-9877828D01*
X34089439Y-10160000D01*
X33667140Y-10442172D01*
X33364308Y-10895391D01*
X33257968Y-11430000D01*
X33364308Y-11964609D01*
X33667140Y-12417828D01*
X34089439Y-12700000D01*
X33667140Y-12982172D01*
X33364308Y-13435391D01*
X33257968Y-13970000D01*
X33364308Y-14504609D01*
X33667140Y-14957828D01*
X34089439Y-15240000D01*
X33667140Y-15522172D01*
X33364308Y-15975391D01*
X33257968Y-16510000D01*
X33364308Y-17044609D01*
X33667140Y-17497828D01*
X34089439Y-17780000D01*
X33667140Y-18062172D01*
X33364308Y-18515391D01*
X33257968Y-19050000D01*
X33364308Y-19584609D01*
X33667140Y-20037828D01*
X34089439Y-20320000D01*
X33667140Y-20602172D01*
X33364308Y-21055391D01*
X33257968Y-21590000D01*
X33364308Y-22124609D01*
X33667140Y-22577828D01*
X34089439Y-22860000D01*
X33667140Y-23142172D01*
X33364308Y-23595391D01*
X33257968Y-24130000D01*
X33364308Y-24664609D01*
X33667140Y-25117828D01*
X34089439Y-25400000D01*
X33667140Y-25682172D01*
X33364308Y-26135391D01*
X33257968Y-26670000D01*
X33364308Y-27204609D01*
X33667140Y-27657828D01*
X34089439Y-27940000D01*
X33667140Y-28222172D01*
X33601105Y-28321000D01*
X30149339Y-28321000D01*
X29586595Y-28087328D01*
X28836695Y-28086674D01*
X28143628Y-28373043D01*
X27612907Y-28902839D01*
X27325328Y-29595405D01*
X27324674Y-30345305D01*
X27611043Y-31038372D01*
X28140839Y-31569093D01*
X28833405Y-31856672D01*
X29583305Y-31857326D01*
X30276372Y-31570957D01*
X30807093Y-31041161D01*
X31094672Y-30348595D01*
X31094890Y-30099000D01*
X33601105Y-30099000D01*
X33667140Y-30197828D01*
X34089439Y-30480000D01*
X33667140Y-30762172D01*
X33601105Y-30861000D01*
X31750000Y-30861000D01*
X31409794Y-30928671D01*
X31241441Y-31041161D01*
X31121382Y-31121382D01*
X29001838Y-33240926D01*
X28824595Y-33167328D01*
X28074695Y-33166674D01*
X27381628Y-33453043D01*
X26850907Y-33982839D01*
X26563328Y-34675405D01*
X26562674Y-35425305D01*
X26019000Y-35425305D01*
X26019000Y-34510173D01*
X25894543Y-33884486D01*
X25540120Y-33354053D01*
X25009687Y-32999630D01*
X24384000Y-32875173D01*
X23758313Y-32999630D01*
X23398045Y-33240353D01*
X23308090Y-33100559D01*
X23095890Y-32955569D01*
X22844000Y-32904560D01*
X20844000Y-32904560D01*
X20608683Y-32948838D01*
X20392559Y-33087910D01*
X20247569Y-33300110D01*
X20196560Y-33552000D01*
X18485926Y-33552000D01*
X18737370Y-33175687D01*
X18861827Y-32550000D01*
X18737370Y-31924313D01*
X18382947Y-31393880D01*
X18212513Y-31280000D01*
X18382947Y-31166120D01*
X18737370Y-30635687D01*
X18861827Y-30010000D01*
X18737370Y-29384313D01*
X18382947Y-28853880D01*
X18212513Y-28740000D01*
X18382947Y-28626120D01*
X18485926Y-28472000D01*
X20196560Y-28472000D01*
X20196560Y-31472000D01*
X20240838Y-31707317D01*
X20379910Y-31923441D01*
X20592110Y-32068431D01*
X20844000Y-32119440D01*
X22844000Y-32119440D01*
X23079317Y-32075162D01*
X23295441Y-31936090D01*
X23399113Y-31784361D01*
X23758313Y-32024370D01*
X24384000Y-32148827D01*
X25009687Y-32024370D01*
X25540120Y-31669947D01*
X25894543Y-31139514D01*
X26019000Y-30513827D01*
X26019000Y-29430173D01*
X25894543Y-28804486D01*
X25540120Y-28274053D01*
X25009687Y-27919630D01*
X24384000Y-27795173D01*
X23758313Y-27919630D01*
X23398045Y-28160353D01*
X23308090Y-28020559D01*
X23095890Y-27875569D01*
X22844000Y-27824560D01*
X20844000Y-27824560D01*
X20608683Y-27868838D01*
X20392559Y-28007910D01*
X20247569Y-28220110D01*
X20196560Y-28472000D01*
X18485926Y-28472000D01*
X18737370Y-28095687D01*
X18861827Y-27470000D01*
X18737370Y-26844313D01*
X18382947Y-26313880D01*
X18212513Y-26200000D01*
X18382947Y-26086120D01*
X18737370Y-25555687D01*
X18861827Y-24930000D01*
X18737370Y-24304313D01*
X18382947Y-23773880D01*
X18212513Y-23660000D01*
X18382947Y-23546120D01*
X18737370Y-23015687D01*
X18861827Y-22390000D01*
X18737370Y-21764313D01*
X18382947Y-21233880D01*
X18212513Y-21120000D01*
X18382947Y-21006120D01*
X18737370Y-20475687D01*
X18861827Y-19850000D01*
X18737370Y-19224313D01*
X18382947Y-18693880D01*
X18212513Y-18580000D01*
X18382947Y-18466120D01*
X18737370Y-17935687D01*
X18861827Y-17310000D01*
X18737370Y-16684313D01*
X18382947Y-16153880D01*
X18212513Y-16040000D01*
X18382947Y-15926120D01*
X18737370Y-15395687D01*
X18815282Y-15003997D01*
X19050000Y-15239125D01*
X19050000Y-18034000D01*
X19117671Y-18374206D01*
X19212008Y-18515391D01*
X19310382Y-18662618D01*
X20667926Y-20020162D01*
X20594328Y-20197405D01*
X20593674Y-20947305D01*
X20880043Y-21640372D01*
X21301273Y-22062337D01*
X21233559Y-22105910D01*
X21088569Y-22318110D01*
X21037560Y-22570000D01*
X21037560Y-25570000D01*
X21081838Y-25805317D01*
X21220910Y-26021441D01*
X21433110Y-26166431D01*
X21685000Y-26217440D01*
X23685000Y-26217440D01*
X23920317Y-26173162D01*
X24136441Y-26034090D01*
X24240113Y-25882361D01*
X24599313Y-26122370D01*
X25225000Y-26246827D01*
X25850687Y-26122370D01*
X26381120Y-25767947D01*
X26495000Y-25597513D01*
X26608880Y-25767947D01*
X27139313Y-26122370D01*
X27765000Y-26246827D01*
X28390687Y-26122370D01*
X28921120Y-25767947D01*
X29275543Y-25237514D01*
X29400000Y-24611827D01*
X29400000Y-23528173D01*
X29275543Y-22902486D01*
X28921120Y-22372053D01*
X28390687Y-22017630D01*
X27765000Y-21893173D01*
X27139313Y-22017630D01*
X26608880Y-22372053D01*
X26495000Y-22542487D01*
X26381120Y-22372053D01*
X25850687Y-22017630D01*
X25225000Y-21893173D01*
X24599313Y-22017630D01*
X24239045Y-22258353D01*
X24149090Y-22118559D01*
X23936890Y-21973569D01*
X23777452Y-21941282D01*
X24076093Y-21643161D01*
X24363672Y-20950595D01*
X24364326Y-20200695D01*
X24077957Y-19507628D01*
X23548161Y-18976907D01*
X22855595Y-18689328D01*
X22105695Y-18688674D01*
X21925404Y-18763168D01*
X20828000Y-17665764D01*
X20828000Y-15493196D01*
X21259372Y-15314957D01*
X21790093Y-14785161D01*
X22077672Y-14092595D01*
X22078326Y-13342695D01*
X21791957Y-12649628D01*
X21262161Y-12118907D01*
X20569595Y-11831328D01*
X19819695Y-11830674D01*
X19126628Y-12117043D01*
X18824255Y-12418889D01*
X18861827Y-12230000D01*
X18737370Y-11604313D01*
X18382947Y-11073880D01*
X18212513Y-10960000D01*
X18382947Y-10846120D01*
X18737370Y-10315687D01*
X18770327Y-10150000D01*
X22017968Y-10150000D01*
X22142425Y-10775687D01*
X22496848Y-11306120D01*
X22667282Y-11420000D01*
X22496848Y-11533880D01*
X22142425Y-12064313D01*
X22017968Y-12690000D01*
X22142425Y-13315687D01*
X22496848Y-13846120D01*
X22667282Y-13960000D01*
X22496848Y-14073880D01*
X22142425Y-14604313D01*
X22017968Y-15230000D01*
X22142425Y-15855687D01*
X22496848Y-16386120D01*
X23027281Y-16740543D01*
X23652968Y-16865000D01*
X23717032Y-16865000D01*
X24342719Y-16740543D01*
X24873152Y-16386120D01*
X24955000Y-16263625D01*
X25036848Y-16386120D01*
X25567281Y-16740543D01*
X26192968Y-16865000D01*
X26257032Y-16865000D01*
X26882719Y-16740543D01*
X27413152Y-16386120D01*
X27767575Y-15855687D01*
X27892032Y-15230000D01*
X27767575Y-14604313D01*
X27413152Y-14073880D01*
X27242718Y-13960000D01*
X27413152Y-13846120D01*
X27767575Y-13315687D01*
X27892032Y-12690000D01*
X27767575Y-12064313D01*
X27413152Y-11533880D01*
X27242718Y-11420000D01*
X27413152Y-11306120D01*
X27767575Y-10775687D01*
X27892032Y-10150000D01*
X27767575Y-9524313D01*
X27413152Y-8993880D01*
X27237660Y-8876621D01*
X27618402Y-8465385D01*
X27815124Y-7990434D01*
X27695777Y-7737000D01*
X26352000Y-7737000D01*
X26352000Y-7757000D01*
X26098000Y-7757000D01*
X26098000Y-7737000D01*
X23812000Y-7737000D01*
X23812000Y-7757000D01*
X23558000Y-7757000D01*
X23558000Y-7737000D01*
X22214223Y-7737000D01*
X22094876Y-7990434D01*
X22291598Y-8465385D01*
X22672340Y-8876621D01*
X22496848Y-8993880D01*
X22142425Y-9524313D01*
X22017968Y-10150000D01*
X18770327Y-10150000D01*
X18861827Y-9690000D01*
X18737370Y-9064313D01*
X18382947Y-8533880D01*
X18212513Y-8420000D01*
X18382947Y-8306120D01*
X18737370Y-7775687D01*
X18861827Y-7150000D01*
X18737370Y-6524313D01*
X18382947Y-5993880D01*
X18212513Y-5880000D01*
X18382947Y-5766120D01*
X18737370Y-5235687D01*
X18861827Y-4610000D01*
X18754415Y-4070000D01*
X22037560Y-4070000D01*
X22037560Y-6070000D01*
X22081838Y-6305317D01*
X22220910Y-6521441D01*
X22396440Y-6641376D01*
X22291598Y-6754615D01*
X22094876Y-7229566D01*
X22214223Y-7483000D01*
X23558000Y-7483000D01*
X23558000Y-7463000D01*
X23812000Y-7463000D01*
X23812000Y-7483000D01*
X26098000Y-7483000D01*
X26098000Y-7463000D01*
X26352000Y-7463000D01*
X26352000Y-7483000D01*
X27695777Y-7483000D01*
X27815124Y-7229566D01*
X27618402Y-6754615D01*
X27237660Y-6343379D01*
X27413152Y-6226120D01*
X27767575Y-5695687D01*
X27892032Y-5070000D01*
X27767575Y-4444313D01*
X27413152Y-3913880D01*
X26882719Y-3559457D01*
X26257032Y-3435000D01*
X26192968Y-3435000D01*
X25567281Y-3559457D01*
X25248236Y-3772636D01*
X25149090Y-3618559D01*
X24936890Y-3473569D01*
X24685000Y-3422560D01*
X22685000Y-3422560D01*
X22449683Y-3466838D01*
X22233559Y-3605910D01*
X22088569Y-3818110D01*
X22037560Y-4070000D01*
X18754415Y-4070000D01*
X18737370Y-3984313D01*
X18496647Y-3624045D01*
X18636441Y-3534090D01*
X18781431Y-3321890D01*
X18832440Y-3070000D01*
X18832440Y-1070000D01*
X18788162Y-834683D01*
X18707931Y-710000D01*
X42470000Y-710000D01*
X42470000Y-60250000D01*
X21030000Y-60250000D01*
X21030000Y-51435000D01*
X20975954Y-51163295D01*
X20822046Y-50932954D01*
X20591705Y-50779046D01*
X20320000Y-50725000D01*
X-21590000Y-50725000D01*
X-21861705Y-50779046D01*
X-22092046Y-50932954D01*
X-22245954Y-51163295D01*
X-22300000Y-51435000D01*
X-22300000Y-60250000D01*
X-42470000Y-60250000D01*
X-42470000Y-54953070D01*
X-37787220Y-54953070D01*
X-37770377Y-55045230D01*
X-37502020Y-55523892D01*
X-37070914Y-55863422D01*
X-36542692Y-56012130D01*
X-36322000Y-55853277D01*
X-36322000Y-54737000D01*
X-37664720Y-54737000D01*
X-37787220Y-54953070D01*
X-42470000Y-54953070D01*
X-42470000Y-52413070D01*
X-37787220Y-52413070D01*
X-37770377Y-52505230D01*
X-37502020Y-52983892D01*
X-37070914Y-53323422D01*
X-37012028Y-53340000D01*
X-37070914Y-53356578D01*
X-37502020Y-53696108D01*
X-37770377Y-54174770D01*
X-37787220Y-54266930D01*
X-37664720Y-54483000D01*
X-36322000Y-54483000D01*
X-36322000Y-53366723D01*
X-36359126Y-53340000D01*
X-36322000Y-53313277D01*
X-36322000Y-52197000D01*
X-37664720Y-52197000D01*
X-37787220Y-52413070D01*
X-42470000Y-52413070D01*
X-42470000Y-37173070D01*
X-37787220Y-37173070D01*
X-37770377Y-37265230D01*
X-37502020Y-37743892D01*
X-37070914Y-38083422D01*
X-37012028Y-38100000D01*
X-37070914Y-38116578D01*
X-37502020Y-38456108D01*
X-37770377Y-38934770D01*
X-37787220Y-39026930D01*
X-37664720Y-39243000D01*
X-36322000Y-39243000D01*
X-36322000Y-38126723D01*
X-36359126Y-38100000D01*
X-36322000Y-38073277D01*
X-36322000Y-36957000D01*
X-37664720Y-36957000D01*
X-37787220Y-37173070D01*
X-42470000Y-37173070D01*
X-42470000Y-27013070D01*
X-37787220Y-27013070D01*
X-37770377Y-27105230D01*
X-37502020Y-27583892D01*
X-37070914Y-27923422D01*
X-37012028Y-27940000D01*
X-37070914Y-27956578D01*
X-37502020Y-28296108D01*
X-37770377Y-28774770D01*
X-37787220Y-28866930D01*
X-37664720Y-29083000D01*
X-36322000Y-29083000D01*
X-36322000Y-27966723D01*
X-36359126Y-27940000D01*
X-36322000Y-27913277D01*
X-36322000Y-26797000D01*
X-37664720Y-26797000D01*
X-37787220Y-27013070D01*
X-42470000Y-27013070D01*
X-42470000Y-19393070D01*
X-37787220Y-19393070D01*
X-37770377Y-19485230D01*
X-37502020Y-19963892D01*
X-37070914Y-20303422D01*
X-37012028Y-20320000D01*
X-37070914Y-20336578D01*
X-37502020Y-20676108D01*
X-37770377Y-21154770D01*
X-37787220Y-21246930D01*
X-37664720Y-21463000D01*
X-36322000Y-21463000D01*
X-36322000Y-20346723D01*
X-36359126Y-20320000D01*
X-36322000Y-20293277D01*
X-36322000Y-19177000D01*
X-37664720Y-19177000D01*
X-37787220Y-19393070D01*
X-42470000Y-19393070D01*
X-42470000Y-16510000D01*
X-37862032Y-16510000D01*
X-37755692Y-17044609D01*
X-37452860Y-17497828D01*
X-37025067Y-17783671D01*
X-37070914Y-17796578D01*
X-37502020Y-18136108D01*
X-37770377Y-18614770D01*
X-37787220Y-18706930D01*
X-37664720Y-18923000D01*
X-36322000Y-18923000D01*
X-36322000Y-18903000D01*
X-36068000Y-18903000D01*
X-36068000Y-18923000D01*
X-36048000Y-18923000D01*
X-36048000Y-19177000D01*
X-36068000Y-19177000D01*
X-36068000Y-20293277D01*
X-36030874Y-20320000D01*
X-36068000Y-20346723D01*
X-36068000Y-21463000D01*
X-36048000Y-21463000D01*
X-36048000Y-21717000D01*
X-36068000Y-21717000D01*
X-36068000Y-21737000D01*
X-36322000Y-21737000D01*
X-36322000Y-21717000D01*
X-37664720Y-21717000D01*
X-37787220Y-21933070D01*
X-37770377Y-22025230D01*
X-37502020Y-22503892D01*
X-37070914Y-22843422D01*
X-37025067Y-22856329D01*
X-37452860Y-23142172D01*
X-37755692Y-23595391D01*
X-37862032Y-24130000D01*
X-37755692Y-24664609D01*
X-37452860Y-25117828D01*
X-37025067Y-25403671D01*
X-37070914Y-25416578D01*
X-37502020Y-25756108D01*
X-37770377Y-26234770D01*
X-37787220Y-26326930D01*
X-37664720Y-26543000D01*
X-36322000Y-26543000D01*
X-36322000Y-26523000D01*
X-36068000Y-26523000D01*
X-36068000Y-26543000D01*
X-36048000Y-26543000D01*
X-36048000Y-26797000D01*
X-36068000Y-26797000D01*
X-36068000Y-27913277D01*
X-36030874Y-27940000D01*
X-36068000Y-27966723D01*
X-36068000Y-29083000D01*
X-36048000Y-29083000D01*
X-36048000Y-29337000D01*
X-36068000Y-29337000D01*
X-36068000Y-29357000D01*
X-36322000Y-29357000D01*
X-36322000Y-29337000D01*
X-37664720Y-29337000D01*
X-37787220Y-29553070D01*
X-37770377Y-29645230D01*
X-37502020Y-30123892D01*
X-37070914Y-30463422D01*
X-37025067Y-30476329D01*
X-37452860Y-30762172D01*
X-37755692Y-31215391D01*
X-37862032Y-31750000D01*
X-37755692Y-32284609D01*
X-37452860Y-32737828D01*
X-37030561Y-33020000D01*
X-37452860Y-33302172D01*
X-37755692Y-33755391D01*
X-37862032Y-34290000D01*
X-37755692Y-34824609D01*
X-37452860Y-35277828D01*
X-37025067Y-35563671D01*
X-37070914Y-35576578D01*
X-37502020Y-35916108D01*
X-37770377Y-36394770D01*
X-37787220Y-36486930D01*
X-37664720Y-36703000D01*
X-36322000Y-36703000D01*
X-36322000Y-36683000D01*
X-36068000Y-36683000D01*
X-36068000Y-36703000D01*
X-36048000Y-36703000D01*
X-36048000Y-36957000D01*
X-36068000Y-36957000D01*
X-36068000Y-38073277D01*
X-36030874Y-38100000D01*
X-36068000Y-38126723D01*
X-36068000Y-39243000D01*
X-36048000Y-39243000D01*
X-36048000Y-39497000D01*
X-36068000Y-39497000D01*
X-36068000Y-39517000D01*
X-36322000Y-39517000D01*
X-36322000Y-39497000D01*
X-37664720Y-39497000D01*
X-37787220Y-39713070D01*
X-37770377Y-39805230D01*
X-37502020Y-40283892D01*
X-37070914Y-40623422D01*
X-37025067Y-40636329D01*
X-37452860Y-40922172D01*
X-37755692Y-41375391D01*
X-37862032Y-41910000D01*
X-37755692Y-42444609D01*
X-37452860Y-42897828D01*
X-37030561Y-43180000D01*
X-37452860Y-43462172D01*
X-37755692Y-43915391D01*
X-37862032Y-44450000D01*
X-37755692Y-44984609D01*
X-37452860Y-45437828D01*
X-37030561Y-45720000D01*
X-37452860Y-46002172D01*
X-37755692Y-46455391D01*
X-37862032Y-46990000D01*
X-37755692Y-47524609D01*
X-37452860Y-47977828D01*
X-37030561Y-48260000D01*
X-37452860Y-48542172D01*
X-37755692Y-48995391D01*
X-37862032Y-49530000D01*
X-37755692Y-50064609D01*
X-37452860Y-50517828D01*
X-37025067Y-50803671D01*
X-37070914Y-50816578D01*
X-37502020Y-51156108D01*
X-37770377Y-51634770D01*
X-37787220Y-51726930D01*
X-37664720Y-51943000D01*
X-36322000Y-51943000D01*
X-36322000Y-51923000D01*
X-36068000Y-51923000D01*
X-36068000Y-51943000D01*
X-36048000Y-51943000D01*
X-36048000Y-52197000D01*
X-36068000Y-52197000D01*
X-36068000Y-53313277D01*
X-36030874Y-53340000D01*
X-36068000Y-53366723D01*
X-36068000Y-54483000D01*
X-36048000Y-54483000D01*
X-36048000Y-54737000D01*
X-36068000Y-54737000D01*
X-36068000Y-55853277D01*
X-35847308Y-56012130D01*
X-35319086Y-55863422D01*
X-34936650Y-55562224D01*
X-34912860Y-55597828D01*
X-34459641Y-55900660D01*
X-33925032Y-56007000D01*
X-33384968Y-56007000D01*
X-32850359Y-55900660D01*
X-32397140Y-55597828D01*
X-32331105Y-55499000D01*
X-31115000Y-55499000D01*
X-30774794Y-55431329D01*
X-30486382Y-55238618D01*
X-27963789Y-52716025D01*
X-27427595Y-52938672D01*
X-26677695Y-52939326D01*
X-25984628Y-52652957D01*
X-25453907Y-52123161D01*
X-25166328Y-51430595D01*
X-25165674Y-50680695D01*
X-25452043Y-49987628D01*
X-25981839Y-49456907D01*
X-26674405Y-49169328D01*
X-26956846Y-49169082D01*
X-26676382Y-48888618D01*
X-26483670Y-48600205D01*
X-26416000Y-48260000D01*
X-26416000Y-48083970D01*
X-2149365Y-48083970D01*
X-1989582Y-48402739D01*
X-1198813Y-48712723D01*
X-349613Y-48696497D01*
X359582Y-48402739D01*
X519365Y-48083970D01*
X-815000Y-46749605D01*
X-2149365Y-48083970D01*
X-26416000Y-48083970D01*
X-26416000Y-44070000D01*
X-25462440Y-44070000D01*
X-25462440Y-46070000D01*
X-25418162Y-46305317D01*
X-25279090Y-46521441D01*
X-25066890Y-46666431D01*
X-24815000Y-46717440D01*
X-21815000Y-46717440D01*
X-21579683Y-46673162D01*
X-21363559Y-46534090D01*
X-21218569Y-46321890D01*
X-21191089Y-46186187D01*
X-2957723Y-46186187D01*
X-2941497Y-47035387D01*
X-2647739Y-47744582D01*
X-2328970Y-47904365D01*
X-994605Y-46570000D01*
X-635395Y-46570000D01*
X698970Y-47904365D01*
X1017739Y-47744582D01*
X1312434Y-46992815D01*
X1549630Y-46992815D01*
X1873980Y-47777800D01*
X2474041Y-48378909D01*
X3258459Y-48704628D01*
X4107815Y-48705370D01*
X4892800Y-48381020D01*
X5493909Y-47780959D01*
X5819628Y-46996541D01*
X5820370Y-46147185D01*
X5496020Y-45362200D01*
X4895959Y-44761091D01*
X4111541Y-44435372D01*
X3262185Y-44434630D01*
X2477200Y-44758980D01*
X1876091Y-45359041D01*
X1550372Y-46143459D01*
X1549630Y-46992815D01*
X1312434Y-46992815D01*
X1327723Y-46953813D01*
X1311497Y-46104613D01*
X1017739Y-45395418D01*
X698970Y-45235635D01*
X-635395Y-46570000D01*
X-994605Y-46570000D01*
X-2328970Y-45235635D01*
X-2647739Y-45395418D01*
X-2957723Y-46186187D01*
X-21191089Y-46186187D01*
X-21167560Y-46070000D01*
X-21167560Y-44070000D01*
X-21211838Y-43834683D01*
X-21350910Y-43618559D01*
X-21517620Y-43504651D01*
X-21434032Y-43355750D01*
X-16950000Y-43355750D01*
X-16950000Y-44696310D01*
X-16853327Y-44929699D01*
X-16674698Y-45108327D01*
X-16441309Y-45205000D01*
X-15600750Y-45205000D01*
X-15442000Y-45046250D01*
X-15442000Y-43197000D01*
X-16791250Y-43197000D01*
X-16950000Y-43355750D01*
X-21434032Y-43355750D01*
X-21255856Y-43038355D01*
X-21224876Y-42910434D01*
X-21344223Y-42657000D01*
X-23188000Y-42657000D01*
X-23188000Y-42677000D01*
X-23442000Y-42677000D01*
X-23442000Y-42657000D01*
X-25285777Y-42657000D01*
X-25405124Y-42910434D01*
X-25374144Y-43038355D01*
X-25111505Y-43506211D01*
X-25266441Y-43605910D01*
X-25411431Y-43818110D01*
X-25462440Y-44070000D01*
X-26416000Y-44070000D01*
X-26416000Y-40239111D01*
X-26169695Y-40239326D01*
X-25485160Y-39956482D01*
X-25491827Y-39990000D01*
X-25367370Y-40615687D01*
X-25012947Y-41146120D01*
X-24820611Y-41274634D01*
X-25060922Y-41463683D01*
X-25374144Y-42021645D01*
X-25405124Y-42149566D01*
X-25285777Y-42403000D01*
X-23442000Y-42403000D01*
X-23442000Y-42383000D01*
X-23188000Y-42383000D01*
X-23188000Y-42403000D01*
X-21344223Y-42403000D01*
X-21224876Y-42149566D01*
X-21255856Y-42021645D01*
X-21569078Y-41463683D01*
X-21594492Y-41443690D01*
X-16950000Y-41443690D01*
X-16950000Y-42784250D01*
X-16791250Y-42943000D01*
X-15442000Y-42943000D01*
X-15442000Y-41093750D01*
X-15188000Y-41093750D01*
X-15188000Y-42943000D01*
X-15168000Y-42943000D01*
X-15168000Y-43197000D01*
X-15188000Y-43197000D01*
X-15188000Y-45046250D01*
X-15029250Y-45205000D01*
X-14188691Y-45205000D01*
X-13955302Y-45108327D01*
X-13776673Y-44929699D01*
X-13757677Y-44883838D01*
X-13400687Y-45122370D01*
X-12775000Y-45246827D01*
X-12149313Y-45122370D01*
X-12050028Y-45056030D01*
X-2149365Y-45056030D01*
X-815000Y-46390395D01*
X519365Y-45056030D01*
X359582Y-44737261D01*
X-431187Y-44427277D01*
X-1280387Y-44443503D01*
X-1989582Y-44737261D01*
X-2149365Y-45056030D01*
X-12050028Y-45056030D01*
X-11618880Y-44767947D01*
X-11264457Y-44237514D01*
X-11140000Y-43611827D01*
X-11140000Y-42528173D01*
X-11264457Y-41902486D01*
X-11477281Y-41583970D01*
X-2149365Y-41583970D01*
X-1989582Y-41902739D01*
X-1198813Y-42212723D01*
X-349613Y-42196497D01*
X359582Y-41902739D01*
X519365Y-41583970D01*
X-815000Y-40249605D01*
X-2149365Y-41583970D01*
X-11477281Y-41583970D01*
X-11618880Y-41372053D01*
X-12149313Y-41017630D01*
X-12775000Y-40893173D01*
X-13400687Y-41017630D01*
X-13757677Y-41256162D01*
X-13776673Y-41210301D01*
X-13955302Y-41031673D01*
X-14188691Y-40935000D01*
X-15029250Y-40935000D01*
X-15188000Y-41093750D01*
X-15442000Y-41093750D01*
X-15600750Y-40935000D01*
X-16441309Y-40935000D01*
X-16674698Y-41031673D01*
X-16853327Y-41210301D01*
X-16950000Y-41443690D01*
X-21594492Y-41443690D01*
X-21809389Y-41274634D01*
X-21617053Y-41146120D01*
X-21262630Y-40615687D01*
X-21138173Y-39990000D01*
X-21198605Y-39686187D01*
X-2957723Y-39686187D01*
X-2941497Y-40535387D01*
X-2647739Y-41244582D01*
X-2328970Y-41404365D01*
X-994605Y-40070000D01*
X-635395Y-40070000D01*
X698970Y-41404365D01*
X1017739Y-41244582D01*
X1312434Y-40492815D01*
X1549630Y-40492815D01*
X1873980Y-41277800D01*
X2474041Y-41878909D01*
X3258459Y-42204628D01*
X4107815Y-42205370D01*
X4892800Y-41881020D01*
X5493909Y-41280959D01*
X5819628Y-40496541D01*
X5820370Y-39647185D01*
X5496020Y-38862200D01*
X4895959Y-38261091D01*
X4111541Y-37935372D01*
X3262185Y-37934630D01*
X2477200Y-38258980D01*
X1876091Y-38859041D01*
X1550372Y-39643459D01*
X1549630Y-40492815D01*
X1312434Y-40492815D01*
X1327723Y-40453813D01*
X1311497Y-39604613D01*
X1017739Y-38895418D01*
X698970Y-38735635D01*
X-635395Y-40070000D01*
X-994605Y-40070000D01*
X-2328970Y-38735635D01*
X-2647739Y-38895418D01*
X-2957723Y-39686187D01*
X-21198605Y-39686187D01*
X-21262630Y-39364313D01*
X-21617053Y-38833880D01*
X-21787487Y-38720000D01*
X-21617053Y-38606120D01*
X-21583585Y-38556030D01*
X-2149365Y-38556030D01*
X-815000Y-39890395D01*
X519365Y-38556030D01*
X359582Y-38237261D01*
X-431187Y-37927277D01*
X-1280387Y-37943503D01*
X-1989582Y-38237261D01*
X-2149365Y-38556030D01*
X-21583585Y-38556030D01*
X-21262630Y-38075687D01*
X-21138173Y-37450000D01*
X-21262630Y-36824313D01*
X-21617053Y-36293880D01*
X-21787487Y-36180000D01*
X-21617053Y-36066120D01*
X-21262630Y-35535687D01*
X-21138173Y-34910000D01*
X-21262630Y-34284313D01*
X-21617053Y-33753880D01*
X-21787487Y-33640000D01*
X-21617053Y-33526120D01*
X-21262630Y-32995687D01*
X-21138173Y-32370000D01*
X-21262630Y-31744313D01*
X-21617053Y-31213880D01*
X-21787487Y-31100000D01*
X-21617053Y-30986120D01*
X-21262630Y-30455687D01*
X-21138173Y-29830000D01*
X-21262630Y-29204313D01*
X-21617053Y-28673880D01*
X-21787487Y-28560000D01*
X-21617053Y-28446120D01*
X-21262630Y-27915687D01*
X-21138173Y-27290000D01*
X-21262630Y-26664313D01*
X-21617053Y-26133880D01*
X-21787487Y-26020000D01*
X-21617053Y-25906120D01*
X-21262630Y-25375687D01*
X-21138173Y-24750000D01*
X-21262630Y-24124313D01*
X-21617053Y-23593880D01*
X-21787487Y-23480000D01*
X-21617053Y-23366120D01*
X-21262630Y-22835687D01*
X-21138173Y-22210000D01*
X-21262630Y-21584313D01*
X-21617053Y-21053880D01*
X-21787487Y-20940000D01*
X-21617053Y-20826120D01*
X-21262630Y-20295687D01*
X-21138173Y-19670000D01*
X-21262630Y-19044313D01*
X-21617053Y-18513880D01*
X-21787487Y-18400000D01*
X-21617053Y-18286120D01*
X-21262630Y-17755687D01*
X-21138173Y-17130000D01*
X-21262630Y-16504313D01*
X-21617053Y-15973880D01*
X-21787487Y-15860000D01*
X-21617053Y-15746120D01*
X-21262630Y-15215687D01*
X-21138173Y-14590000D01*
X-21262630Y-13964313D01*
X-21617053Y-13433880D01*
X-21809389Y-13305366D01*
X-21569078Y-13116317D01*
X-21255856Y-12558355D01*
X-21224876Y-12430434D01*
X-21344223Y-12177000D01*
X-23188000Y-12177000D01*
X-23188000Y-12197000D01*
X-23442000Y-12197000D01*
X-23442000Y-12177000D01*
X-25285777Y-12177000D01*
X-25405124Y-12430434D01*
X-25374144Y-12558355D01*
X-25060922Y-13116317D01*
X-24820611Y-13305366D01*
X-25012947Y-13433880D01*
X-25367370Y-13964313D01*
X-25491827Y-14590000D01*
X-25367370Y-15215687D01*
X-25012947Y-15746120D01*
X-24842513Y-15860000D01*
X-25012947Y-15973880D01*
X-25367370Y-16504313D01*
X-25491827Y-17130000D01*
X-25367370Y-17755687D01*
X-25012947Y-18286120D01*
X-24842513Y-18400000D01*
X-25012947Y-18513880D01*
X-25367370Y-19044313D01*
X-25491827Y-19670000D01*
X-25367370Y-20295687D01*
X-25012947Y-20826120D01*
X-24842513Y-20940000D01*
X-25012947Y-21053880D01*
X-25367370Y-21584313D01*
X-25491827Y-22210000D01*
X-25367370Y-22835687D01*
X-25012947Y-23366120D01*
X-24842513Y-23480000D01*
X-25012947Y-23593880D01*
X-25367370Y-24124313D01*
X-25491827Y-24750000D01*
X-25367370Y-25375687D01*
X-25012947Y-25906120D01*
X-24842513Y-26020000D01*
X-25012947Y-26133880D01*
X-25367370Y-26664313D01*
X-25491827Y-27290000D01*
X-25367370Y-27915687D01*
X-25012947Y-28446120D01*
X-24842513Y-28560000D01*
X-25012947Y-28673880D01*
X-25165953Y-28902871D01*
X-25165674Y-28582695D01*
X-25452043Y-27889628D01*
X-25981839Y-27358907D01*
X-26674405Y-27071328D01*
X-27424305Y-27070674D01*
X-28117372Y-27357043D01*
X-28648093Y-27886839D01*
X-28828373Y-28321000D01*
X-30099000Y-28321000D01*
X-30439206Y-28388671D01*
X-30724659Y-28579405D01*
X-30727618Y-28581382D01*
X-31743618Y-29597382D01*
X-31936329Y-29885794D01*
X-32004000Y-30226000D01*
X-32004000Y-31669401D01*
X-32094308Y-31215391D01*
X-32397140Y-30762172D01*
X-32819439Y-30480000D01*
X-32397140Y-30197828D01*
X-32094308Y-29744609D01*
X-31987968Y-29210000D01*
X-32094308Y-28675391D01*
X-32397140Y-28222172D01*
X-32819439Y-27940000D01*
X-32397140Y-27657828D01*
X-32094308Y-27204609D01*
X-31987968Y-26670000D01*
X-32094308Y-26135391D01*
X-32397140Y-25682172D01*
X-32819439Y-25400000D01*
X-32397140Y-25117828D01*
X-32094308Y-24664609D01*
X-31987968Y-24130000D01*
X-32094308Y-23595391D01*
X-32397140Y-23142172D01*
X-32819439Y-22860000D01*
X-32397140Y-22577828D01*
X-32094308Y-22124609D01*
X-31987968Y-21590000D01*
X-32094308Y-21055391D01*
X-32397140Y-20602172D01*
X-32819439Y-20320000D01*
X-32397140Y-20037828D01*
X-32094308Y-19584609D01*
X-31987968Y-19050000D01*
X-32094308Y-18515391D01*
X-32397140Y-18062172D01*
X-32819439Y-17780000D01*
X-32397140Y-17497828D01*
X-32094308Y-17044609D01*
X-31987968Y-16510000D01*
X-32094308Y-15975391D01*
X-32397140Y-15522172D01*
X-32819439Y-15240000D01*
X-32397140Y-14957828D01*
X-32094308Y-14504609D01*
X-31987968Y-13970000D01*
X-32094308Y-13435391D01*
X-32397140Y-12982172D01*
X-32819439Y-12700000D01*
X-32397140Y-12417828D01*
X-32094308Y-11964609D01*
X-31987968Y-11430000D01*
X-32094308Y-10895391D01*
X-32397140Y-10442172D01*
X-32819439Y-10160000D01*
X-32397140Y-9877828D01*
X-32094308Y-9424609D01*
X-31987968Y-8890000D01*
X-32094308Y-8355391D01*
X-32397140Y-7902172D01*
X-32819439Y-7620000D01*
X-32397140Y-7337828D01*
X-32094308Y-6884609D01*
X-31987968Y-6350000D01*
X-32094308Y-5815391D01*
X-32397140Y-5362172D01*
X-32850359Y-5059340D01*
X-33384968Y-4953000D01*
X-33925032Y-4953000D01*
X-34459641Y-5059340D01*
X-34684093Y-5209314D01*
X-34730910Y-5136559D01*
X-34943110Y-4991569D01*
X-35195000Y-4940560D01*
X-37195000Y-4940560D01*
X-37430317Y-4984838D01*
X-37646441Y-5123910D01*
X-37791431Y-5336110D01*
X-37842440Y-5588000D01*
X-37842440Y-7112000D01*
X-37798162Y-7347317D01*
X-37659090Y-7563441D01*
X-37446890Y-7708431D01*
X-37220386Y-7754299D01*
X-37502020Y-7976108D01*
X-37770377Y-8454770D01*
X-37787220Y-8546930D01*
X-37664720Y-8763000D01*
X-36322000Y-8763000D01*
X-36322000Y-8743000D01*
X-36068000Y-8743000D01*
X-36068000Y-8763000D01*
X-36048000Y-8763000D01*
X-36048000Y-9017000D01*
X-36068000Y-9017000D01*
X-36068000Y-10133277D01*
X-36030874Y-10160000D01*
X-36068000Y-10186723D01*
X-36068000Y-11303000D01*
X-36048000Y-11303000D01*
X-36048000Y-11557000D01*
X-36068000Y-11557000D01*
X-36068000Y-12673277D01*
X-36030874Y-12700000D01*
X-36068000Y-12726723D01*
X-36068000Y-13843000D01*
X-36048000Y-13843000D01*
X-36048000Y-14097000D01*
X-36068000Y-14097000D01*
X-36068000Y-14117000D01*
X-36322000Y-14117000D01*
X-36322000Y-14097000D01*
X-37664720Y-14097000D01*
X-37787220Y-14313070D01*
X-37770377Y-14405230D01*
X-37502020Y-14883892D01*
X-37070914Y-15223422D01*
X-37025067Y-15236329D01*
X-37452860Y-15522172D01*
X-37755692Y-15975391D01*
X-37862032Y-16510000D01*
X-42470000Y-16510000D01*
X-42470000Y-11773070D01*
X-37787220Y-11773070D01*
X-37770377Y-11865230D01*
X-37502020Y-12343892D01*
X-37070914Y-12683422D01*
X-37012028Y-12700000D01*
X-37070914Y-12716578D01*
X-37502020Y-13056108D01*
X-37770377Y-13534770D01*
X-37787220Y-13626930D01*
X-37664720Y-13843000D01*
X-36322000Y-13843000D01*
X-36322000Y-12726723D01*
X-36359126Y-12700000D01*
X-36322000Y-12673277D01*
X-36322000Y-11557000D01*
X-37664720Y-11557000D01*
X-37787220Y-11773070D01*
X-42470000Y-11773070D01*
X-42470000Y-9233070D01*
X-37787220Y-9233070D01*
X-37770377Y-9325230D01*
X-37502020Y-9803892D01*
X-37070914Y-10143422D01*
X-37012028Y-10160000D01*
X-37070914Y-10176578D01*
X-37502020Y-10516108D01*
X-37770377Y-10994770D01*
X-37787220Y-11086930D01*
X-37664720Y-11303000D01*
X-36322000Y-11303000D01*
X-36322000Y-10186723D01*
X-36359126Y-10160000D01*
X-36322000Y-10133277D01*
X-36322000Y-9017000D01*
X-37664720Y-9017000D01*
X-37787220Y-9233070D01*
X-42470000Y-9233070D01*
X-42470000Y-710000D01*
X-24977208Y-710000D01*
X-25012947Y-733880D01*
M02*
