M48
;DRILL file {KiCad 4.0.6-e0-6349~52~ubuntu17.04.1} date Sat May 20 12:03:47 2017
;FORMAT={-:-/ absolute / metric / decimal}
FMAT,2
METRIC,TZ
T1C0.800
T2C0.900
T3C1.000
T4C1.016
T5C1.100
%
G90
G05
M71
T1
X-27.813Y-11.938
X-27.051Y-28.956
X-27.051Y-32.004
X-27.051Y-51.054
X-26.797Y-35.052
X-26.543Y-38.354
X-14.315Y-6.07
X-14.315Y-8.07
X-14.315Y-10.07
X-14.315Y-12.07
X-14.315Y-14.07
X-14.315Y-16.07
X-14.315Y-18.07
X-14.315Y-20.07
X-14.315Y-22.07
X-12.315Y-6.07
X-12.315Y-8.07
X-12.315Y-10.07
X-12.315Y-12.07
X-12.315Y-14.07
X-12.315Y-16.07
X-12.315Y-18.07
X-12.315Y-20.07
X-12.315Y-22.07
X5.685Y-6.07
X5.685Y-8.07
X5.685Y-10.07
X5.685Y-12.07
X5.685Y-14.07
X5.685Y-16.07
X5.685Y-18.07
X5.685Y-20.07
X5.685Y-22.07
X7.685Y-6.07
X7.685Y-8.07
X7.685Y-10.07
X7.685Y-12.07
X7.685Y-14.07
X7.685Y-16.07
X7.685Y-18.07
X7.685Y-20.07
X7.685Y-22.07
X20.193Y-13.716
X22.479Y-20.574
X28.448Y-35.052
X28.702Y-40.132
X28.956Y-45.212
X29.21Y-29.972
X40.513Y-3.302
T2
X-15.315Y-43.07
X-12.775Y-43.07
T3
X-23.315Y-1.89
X-23.315Y-4.43
X-23.315Y-6.97
X-23.315Y-9.51
X-23.315Y-12.05
X-23.315Y-14.59
X-23.315Y-17.13
X-23.315Y-19.67
X-23.315Y-22.21
X-23.315Y-24.75
X-23.315Y-27.29
X-23.315Y-29.83
X-23.315Y-32.37
X-23.315Y-34.91
X-23.315Y-37.45
X-23.315Y-39.99
X-23.315Y-42.53
X-23.315Y-45.07
X16.685Y-2.07
X16.685Y-4.61
X16.685Y-7.15
X16.685Y-9.69
X16.685Y-12.23
X16.685Y-14.77
X16.685Y-17.31
X16.685Y-19.85
X16.685Y-22.39
X16.685Y-24.93
X16.685Y-27.47
X16.685Y-30.01
X16.685Y-32.55
X16.685Y-35.09
X16.685Y-37.63
X16.685Y-40.17
X16.685Y-42.71
X16.685Y-45.25
X21.844Y-29.972
X21.844Y-35.052
X21.844Y-40.132
X21.844Y-44.958
X22.685Y-24.07
X23.685Y-5.07
X23.685Y-7.61
X23.685Y-10.15
X23.685Y-12.69
X23.685Y-15.23
X24.384Y-29.972
X24.384Y-35.052
X24.384Y-40.132
X24.384Y-44.958
X25.225Y-24.07
X26.225Y-5.07
X26.225Y-7.61
X26.225Y-10.15
X26.225Y-12.69
X26.225Y-15.23
X27.765Y-24.07
T4
X-36.195Y-6.35
X-36.195Y-8.89
X-36.195Y-11.43
X-36.195Y-13.97
X-36.195Y-16.51
X-36.195Y-19.05
X-36.195Y-21.59
X-36.195Y-24.13
X-36.195Y-26.67
X-36.195Y-29.21
X-36.195Y-31.75
X-36.195Y-34.29
X-36.195Y-36.83
X-36.195Y-39.37
X-36.195Y-41.91
X-36.195Y-44.45
X-36.195Y-46.99
X-36.195Y-49.53
X-36.195Y-52.07
X-36.195Y-54.61
X-33.655Y-6.35
X-33.655Y-8.89
X-33.655Y-11.43
X-33.655Y-13.97
X-33.655Y-16.51
X-33.655Y-19.05
X-33.655Y-21.59
X-33.655Y-24.13
X-33.655Y-26.67
X-33.655Y-29.21
X-33.655Y-31.75
X-33.655Y-34.29
X-33.655Y-36.83
X-33.655Y-39.37
X-33.655Y-41.91
X-33.655Y-44.45
X-33.655Y-46.99
X-33.655Y-49.53
X-33.655Y-52.07
X-33.655Y-54.61
X34.925Y-6.35
X34.925Y-8.89
X34.925Y-11.43
X34.925Y-13.97
X34.925Y-16.51
X34.925Y-19.05
X34.925Y-21.59
X34.925Y-24.13
X34.925Y-26.67
X34.925Y-29.21
X34.925Y-31.75
X34.925Y-34.29
X34.925Y-36.83
X34.925Y-39.37
X34.925Y-41.91
X34.925Y-44.45
X34.925Y-46.99
X34.925Y-49.53
X34.925Y-52.07
X34.925Y-54.61
X37.465Y-6.35
X37.465Y-8.89
X37.465Y-11.43
X37.465Y-13.97
X37.465Y-16.51
X37.465Y-19.05
X37.465Y-21.59
X37.465Y-24.13
X37.465Y-26.67
X37.465Y-29.21
X37.465Y-31.75
X37.465Y-34.29
X37.465Y-36.83
X37.465Y-39.37
X37.465Y-41.91
X37.465Y-44.45
X37.465Y-46.99
X37.465Y-49.53
X37.465Y-52.07
X37.465Y-54.61
T5
X-0.815Y-40.07
X-0.815Y-46.57
X3.685Y-40.07
X3.685Y-46.57
T0
M30
